<svg width="32" height="32" viewBox="0 0 32 32" fill="none" xmlns="http://www.w3.org/2000/svg">
<g clip-path="url(#clip0_358_4423)">
<path d="M31.1563 17.1699H25.5835C20.7156 17.1699 16.7695 21.1161 16.7695 25.9839V31.5567C24.4525 30.987 30.5866 24.8528 31.1563 17.1699Z" fill="#008363"/>
<path d="M14.4298 31.5567V25.9839C14.4298 21.1161 10.4836 17.1699 5.61575 17.1699H0.0429688C0.612629 24.8528 6.74683 30.987 14.4298 31.5567Z" fill="#008363"/>
<path d="M31.1563 14.8299C30.5866 7.14698 24.4525 1.01278 16.7695 0.443115V6.0159C16.7695 10.8837 20.7156 14.8299 25.5835 14.8299H31.1563Z" fill="#008363"/>
<path d="M14.4298 0.443115C6.74683 1.01278 0.612629 7.14698 0.0429688 14.8299H5.61575C10.4836 14.8299 14.4298 10.8837 14.4298 6.0159V0.443115Z" fill="#008363"/>
<path d="M10.5938 15.9999C12.7563 14.9193 14.5187 13.1569 15.5992 10.9944C16.6797 13.1569 18.442 14.9193 20.6047 15.9999C18.442 17.0803 16.6797 18.8427 15.5992 21.0053C14.5187 18.8427 12.7563 17.0803 10.5938 15.9999Z" fill="#008363"/>
</g>
<defs>
<clipPath id="clip0_358_4423">
<rect width="31.2" height="31.2" fill="white" transform="translate(0 0.399902)"/>
</clipPath>
</defs>
</svg>
