<svg width="100%" height="100%" viewBox="0 0 96 96" fill="none" xmlns="http://www.w3.org/2000/svg">
<g clip-path="url(#clip0_202_2034)">
<path d="M91.7975 8.37314C91.8033 6.81152 91.3707 5.27961 90.5489 3.95171C89.7271 2.62381 88.5491 1.55324 87.1488 0.861801C85.7486 0.170366 84.1824 -0.114168 82.6285 0.0405724C81.0746 0.195313 79.5952 0.783114 78.3589 1.7371C77.1225 2.69108 76.1787 3.97294 75.6349 5.43683C75.0911 6.90072 74.9691 8.48785 75.2828 10.0177C75.5965 11.5475 76.3332 12.9585 77.4093 14.0902C78.4853 15.222 79.8574 16.029 81.3695 16.4194V26.2801L73.6382 34.0114C73.439 34.2038 73.2801 34.4339 73.1708 34.6884C73.0615 34.9428 73.0039 35.2165 73.0015 35.4934C72.9991 35.7703 73.0519 36.045 73.1568 36.3013C73.2616 36.5576 73.4165 36.7905 73.6123 36.9863C73.8081 37.1821 74.041 37.337 74.2973 37.4418C74.5536 37.5467 74.8283 37.5995 75.1052 37.5971C75.3821 37.5947 75.6558 37.5371 75.9102 37.4278C76.1647 37.3185 76.3948 37.1596 76.5872 36.9604L84.9296 28.618C85.3208 28.227 85.5406 27.6966 85.5407 27.1435V16.4194C87.3263 15.9584 88.9087 14.9187 90.0408 13.4629C91.1728 12.0071 91.7906 10.2173 91.7975 8.37314Z" fill="url(#paint0_linear_202_2034)"/>
<path d="M22.3605 34.0114L14.6292 26.2801V16.4194C16.5952 15.9118 18.3086 14.7046 19.4482 13.024C20.5878 11.3435 21.0753 9.30503 20.8195 7.29073C20.5636 5.27643 19.5819 3.42459 18.0584 2.08232C16.5348 0.74005 14.5741 -0.000488281 12.5436 -0.000488281C10.5131 -0.000488281 8.55232 0.74005 7.02878 2.08232C5.50524 3.42459 4.52353 5.27643 4.26768 7.29073C4.01183 9.30503 4.4994 11.3435 5.639 13.024C6.7786 14.7046 8.49198 15.9118 10.458 16.4194V27.1435C10.4581 27.6966 10.6779 28.227 11.0691 28.6181L19.4115 36.9604C19.8048 37.3404 20.3316 37.5506 20.8785 37.5458C21.4253 37.5411 21.9484 37.3217 22.3351 36.935C22.7218 36.5484 22.9411 36.0253 22.9459 35.4784C22.9506 34.9316 22.7404 34.4048 22.3605 34.0114Z" fill="url(#paint1_linear_202_2034)"/>
<path d="M54.2554 0.0297852H41.7418C41.1887 0.0297852 40.6582 0.249517 40.2671 0.640643C39.876 1.03177 39.6562 1.56225 39.6562 2.11538V14.629C39.6562 15.1821 39.876 15.7126 40.2671 16.1037C40.6582 16.4948 41.1887 16.7146 41.7418 16.7146H45.913V20.8858C45.913 21.4389 46.1328 21.9694 46.5239 22.3605C46.915 22.7516 47.4455 22.9714 47.9986 22.9714C48.5518 22.9714 49.0823 22.7516 49.4734 22.3605C49.8645 21.9694 50.0842 21.4389 50.0842 20.8858V16.7146H54.2554C54.8086 16.7146 55.3391 16.4948 55.7302 16.1037C56.1213 15.7126 56.341 15.1821 56.341 14.629V2.11538C56.341 1.56225 56.1213 1.03177 55.7302 0.640643C55.3391 0.249517 54.8086 0.0297852 54.2554 0.0297852Z" fill="url(#paint2_linear_202_2034)"/>
<path d="M89.7094 79.2835H85.5383V68.8555C85.5381 68.3024 85.3183 67.772 84.9272 67.381L76.5848 59.0386C76.1914 58.6587 75.6646 58.4485 75.1178 58.4532C74.5709 58.458 74.0478 58.6773 73.6611 59.064C73.2745 59.4507 73.0551 59.9738 73.0504 60.5206C73.0456 61.0674 73.2558 61.5943 73.6357 61.9876L81.3671 69.7189V79.2835H77.1959C76.6427 79.2835 76.1122 79.5032 75.7211 79.8943C75.33 80.2855 75.1103 80.8159 75.1103 81.3691V93.8827C75.1103 94.4358 75.33 94.9663 75.7211 95.3574C76.1122 95.7485 76.6427 95.9683 77.1959 95.9683H89.7094C90.2626 95.9683 90.7931 95.7485 91.1842 95.3574C91.5753 94.9663 91.795 94.4358 91.795 93.8827V81.3691C91.795 80.8159 91.5753 80.2855 91.1842 79.8943C90.7931 79.5032 90.2626 79.2835 89.7094 79.2835Z" fill="url(#paint3_linear_202_2034)"/>
<path d="M22.3605 61.9876C22.7404 61.5943 22.9506 61.0674 22.9458 60.5206C22.9411 59.9738 22.7218 59.4507 22.3351 59.064C21.9484 58.6773 21.4253 58.458 20.8784 58.4532C20.3316 58.4485 19.8048 58.6587 19.4114 59.0386L11.069 67.381C10.6779 67.772 10.4581 68.3024 10.458 68.8555V79.2835H6.28677C5.73363 79.2835 5.20315 79.5032 4.81203 79.8943C4.4209 80.2855 4.20117 80.8159 4.20117 81.3691V93.8827C4.20117 94.4358 4.4209 94.9663 4.81203 95.3574C5.20315 95.7485 5.73363 95.9683 6.28677 95.9683H18.8004C19.3535 95.9683 19.884 95.7485 20.2751 95.3574C20.6662 94.9663 20.886 94.4358 20.886 93.8827V81.3691C20.886 80.8159 20.6662 80.2855 20.2751 79.8943C19.884 79.5032 19.3535 79.2835 18.8004 79.2835H14.6292V69.7189L22.3605 61.9876Z" fill="url(#paint4_linear_202_2034)"/>
<path d="M50.0843 79.5788V75.1115C50.0843 74.5583 49.8645 74.0279 49.4734 73.6367C49.0823 73.2456 48.5518 73.0259 47.9987 73.0259C47.4455 73.0259 46.915 73.2456 46.5239 73.6367C46.1328 74.0279 45.9131 74.5583 45.9131 75.1115V79.5788C43.9471 80.0864 42.2337 81.2937 41.0941 82.9742C39.9545 84.6547 39.4669 86.6932 39.7228 88.7075C39.9786 90.7218 40.9603 92.5736 42.4839 93.9159C44.0074 95.2582 45.9682 95.9987 47.9987 95.9987C50.0291 95.9987 51.9899 95.2582 53.5135 93.9159C55.037 92.5736 56.0187 90.7218 56.2746 88.7075C56.5304 86.6932 56.0428 84.6547 54.9032 82.9742C53.7636 81.2937 52.0503 80.0864 50.0843 79.5788Z" fill="url(#paint5_linear_202_2034)"/>
<g filter="url(#filter0_bi_202_2034)">
<path d="M82.3222 42.6L72.4227 41.88C71.8254 39.4724 70.873 37.1671 69.5969 35.04L76.0765 27.5412C76.3743 27.1969 76.5305 26.7526 76.5138 26.2977C76.4971 25.8428 76.3087 25.4111 75.9865 25.0896L70.8964 19.9992C70.5751 19.678 70.1442 19.4902 69.6901 19.4735C69.2361 19.4569 68.7926 19.6125 68.4485 19.9092L60.9573 26.4C58.8306 25.12 56.5256 24.1628 54.1177 23.5596L53.3978 13.656C53.3615 13.204 53.1559 12.7823 52.8223 12.4753C52.4886 12.1683 52.0513 11.9986 51.5979 12H44.3982C43.9425 11.9988 43.5033 12.1706 43.1692 12.4806C42.8352 12.7906 42.6312 13.2158 42.5983 13.6704L41.8784 23.574C39.4713 24.1726 37.1664 25.125 35.0388 26.4L27.5368 19.92C27.1927 19.6233 26.7492 19.4677 26.2952 19.4843C25.8411 19.501 25.4102 19.6888 25.0889 20.01L19.9988 25.1004C19.6766 25.4219 19.4882 25.8536 19.4715 26.3085C19.4548 26.7634 19.611 27.2077 19.9088 27.552L26.3992 35.04C25.118 37.1663 24.1608 39.4716 23.559 41.88L13.6595 42.6C13.2069 42.6354 12.7844 42.8406 12.4766 43.1744C12.1689 43.5082 11.9986 43.946 12 44.4V51.6C11.9989 52.0563 12.1711 52.4961 12.4819 52.8302C12.7926 53.1644 13.2187 53.3681 13.6739 53.4L23.5734 54.12C24.1717 56.5273 25.124 58.8324 26.3992 60.96L19.9196 68.4624C19.6229 68.8065 19.4672 69.25 19.4839 69.7041C19.5006 70.1581 19.6884 70.589 20.0096 70.9104L25.0997 76.0008C25.421 76.322 25.8519 76.5098 26.306 76.5265C26.76 76.5431 27.2035 76.3875 27.5476 76.0908L35.0388 69.6C37.1654 70.8803 39.4704 71.8375 41.8784 72.4404L42.5983 82.3404C42.6338 82.793 42.8389 83.2156 43.1727 83.5233C43.5065 83.8311 43.9442 84.0014 44.3982 84H51.5979C52.0542 84.0011 52.4939 83.8289 52.828 83.5181C53.1622 83.2073 53.3658 82.7812 53.3978 82.326L54.1177 72.426C56.5249 71.8277 58.8299 70.8753 60.9573 69.6L68.4593 76.08C68.8034 76.3767 69.2469 76.5323 69.7009 76.5156C70.1549 76.499 70.5859 76.3112 70.9072 75.99L75.9973 70.8996C76.3185 70.5782 76.5063 70.1473 76.523 69.6933C76.5396 69.2392 76.384 68.7957 76.0873 68.4516L69.5969 60.96C70.8771 58.8332 71.8343 56.5281 72.4371 54.12L82.3366 53.4C82.7892 53.3646 83.2117 53.1594 83.5195 52.8256C83.8272 52.4918 83.9975 52.054 83.9961 51.6V44.4C83.9972 43.9437 83.825 43.5039 83.5142 43.1698C83.2035 42.8356 82.7774 42.6319 82.3222 42.6ZM47.998 58.8C45.8621 58.8 43.7742 58.1666 41.9982 56.9799C40.2223 55.7932 38.8381 54.1064 38.0207 52.133C37.2033 50.1595 36.9894 47.988 37.4061 45.893C37.8228 43.798 38.8514 41.8737 40.3617 40.3632C41.872 38.8528 43.7963 37.8242 45.8912 37.4075C47.9861 36.9908 50.1575 37.2047 52.1308 38.0221C54.1041 38.8395 55.7908 40.2238 56.9774 41.9998C58.1641 43.7759 58.7975 45.864 58.7975 48C58.7975 50.8643 57.6597 53.6114 55.6344 55.6368C53.6091 57.6621 50.8622 58.8 47.998 58.8Z" fill="#1D1D1D" fill-opacity="0.05"/>
<path d="M82.3222 42.6L72.4227 41.88C71.8254 39.4724 70.873 37.1671 69.5969 35.04L76.0765 27.5412C76.3743 27.1969 76.5305 26.7526 76.5138 26.2977C76.4971 25.8428 76.3087 25.4111 75.9865 25.0896L70.8964 19.9992C70.5751 19.678 70.1442 19.4902 69.6901 19.4735C69.2361 19.4569 68.7926 19.6125 68.4485 19.9092L60.9573 26.4C58.8306 25.12 56.5256 24.1628 54.1177 23.5596L53.3978 13.656C53.3615 13.204 53.1559 12.7823 52.8223 12.4753C52.4886 12.1683 52.0513 11.9986 51.5979 12H44.3982C43.9425 11.9988 43.5033 12.1706 43.1692 12.4806C42.8352 12.7906 42.6312 13.2158 42.5983 13.6704L41.8784 23.574C39.4713 24.1726 37.1664 25.125 35.0388 26.4L27.5368 19.92C27.1927 19.6233 26.7492 19.4677 26.2952 19.4843C25.8411 19.501 25.4102 19.6888 25.0889 20.01L19.9988 25.1004C19.6766 25.4219 19.4882 25.8536 19.4715 26.3085C19.4548 26.7634 19.611 27.2077 19.9088 27.552L26.3992 35.04C25.118 37.1663 24.1608 39.4716 23.559 41.88L13.6595 42.6C13.2069 42.6354 12.7844 42.8406 12.4766 43.1744C12.1689 43.5082 11.9986 43.946 12 44.4V51.6C11.9989 52.0563 12.1711 52.4961 12.4819 52.8302C12.7926 53.1644 13.2187 53.3681 13.6739 53.4L23.5734 54.12C24.1717 56.5273 25.124 58.8324 26.3992 60.96L19.9196 68.4624C19.6229 68.8065 19.4672 69.25 19.4839 69.7041C19.5006 70.1581 19.6884 70.589 20.0096 70.9104L25.0997 76.0008C25.421 76.322 25.8519 76.5098 26.306 76.5265C26.76 76.5431 27.2035 76.3875 27.5476 76.0908L35.0388 69.6C37.1654 70.8803 39.4704 71.8375 41.8784 72.4404L42.5983 82.3404C42.6338 82.793 42.8389 83.2156 43.1727 83.5233C43.5065 83.8311 43.9442 84.0014 44.3982 84H51.5979C52.0542 84.0011 52.4939 83.8289 52.828 83.5181C53.1622 83.2073 53.3658 82.7812 53.3978 82.326L54.1177 72.426C56.5249 71.8277 58.8299 70.8753 60.9573 69.6L68.4593 76.08C68.8034 76.3767 69.2469 76.5323 69.7009 76.5156C70.1549 76.499 70.5859 76.3112 70.9072 75.99L75.9973 70.8996C76.3185 70.5782 76.5063 70.1473 76.523 69.6933C76.5396 69.2392 76.384 68.7957 76.0873 68.4516L69.5969 60.96C70.8771 58.8332 71.8343 56.5281 72.4371 54.12L82.3366 53.4C82.7892 53.3646 83.2117 53.1594 83.5195 52.8256C83.8272 52.4918 83.9975 52.054 83.9961 51.6V44.4C83.9972 43.9437 83.825 43.5039 83.5142 43.1698C83.2035 42.8356 82.7774 42.6319 82.3222 42.6ZM47.998 58.8C45.8621 58.8 43.7742 58.1666 41.9982 56.9799C40.2223 55.7932 38.8381 54.1064 38.0207 52.133C37.2033 50.1595 36.9894 47.988 37.4061 45.893C37.8228 43.798 38.8514 41.8737 40.3617 40.3632C41.872 38.8528 43.7963 37.8242 45.8912 37.4075C47.9861 36.9908 50.1575 37.2047 52.1308 38.0221C54.1041 38.8395 55.7908 40.2238 56.9774 41.9998C58.1641 43.7759 58.7975 45.864 58.7975 48C58.7975 50.8643 57.6597 53.6114 55.6344 55.6368C53.6091 57.6621 50.8622 58.8 47.998 58.8Z" fill="url(#paint6_linear_202_2034)" fill-opacity="0.2"/>
<path d="M82.2802 43.1985L82.2786 43.1984L72.3792 42.4784L71.9452 42.4468L71.8404 42.0245C71.2574 39.6747 70.3279 37.4247 69.0824 35.3487L68.859 34.9763L69.1429 34.6477L75.6225 27.1489L75.6227 27.1487C75.8212 26.9192 75.9254 26.623 75.9142 26.3197C75.9031 26.0164 75.7775 25.7287 75.5627 25.5143L75.5622 25.5139L70.4722 20.4236C70.4722 20.4235 70.4722 20.4235 70.4721 20.4235C70.2579 20.2094 69.9707 20.0843 69.6681 20.0731C69.3656 20.062 69.0701 20.1657 68.8407 20.3633C68.8406 20.3634 68.8405 20.3635 68.8404 20.3636L61.3502 26.8535L61.0211 27.1387L60.6479 26.9141C58.572 25.6647 56.3222 24.7303 53.9719 24.1416L53.5508 24.0361L53.5193 23.6031L52.7997 13.704C52.7996 13.7033 52.7996 13.7026 52.7995 13.702C52.7749 13.4014 52.638 13.1211 52.416 12.9169C52.1935 12.7122 51.902 12.599 51.5998 12.6L51.5979 12.6L44.3982 12.6H44.3967C44.0929 12.5992 43.8001 12.7137 43.5774 12.9204C43.3547 13.1271 43.2187 13.4105 43.1968 13.7136L43.1968 13.7139L42.4768 23.6175L42.4453 24.0513L42.0232 24.1563C39.6737 24.7406 37.4239 25.6702 35.3472 26.9147L34.9749 27.1377L34.6465 26.8541L27.1449 20.3744L82.2802 43.1985ZM82.2802 43.1985C82.5836 43.2198 82.8677 43.3556 83.0748 43.5784C83.282 43.8011 83.3968 44.0943 83.3961 44.3985V44.4L83.3961 51.6L83.3961 51.6018C83.397 51.9045 83.2835 52.1964 83.0783 52.4189C82.8735 52.6411 82.5925 52.7777 82.2914 52.8017C82.2908 52.8017 82.2903 52.8018 82.2898 52.8018L72.3936 53.5216L71.9605 53.5531L71.8551 53.9743C71.2667 56.3247 70.3324 58.5747 69.0828 60.6506L68.8582 61.0237M82.2802 43.1985L68.8582 61.0237M44.3982 12H51.5979H44.3982ZM44.3982 12C43.9425 11.9988 43.5033 12.1706 43.1692 12.4806M44.3982 12L43.1692 12.4806M20.423 25.5247L20.4226 25.5251C20.2078 25.7395 20.0822 26.0272 20.0711 26.3305C20.0599 26.6338 20.1641 26.93 20.3626 27.1595L26.8526 34.647L27.1381 34.9764L26.9131 35.3497C25.6627 37.4249 24.7284 39.6749 24.1411 42.0254L24.0358 42.4469L23.6025 42.4784L13.7063 43.1982C13.7058 43.1982 13.7053 43.1983 13.7047 43.1983C13.4036 43.2223 13.1226 43.3589 12.9177 43.5811C12.7126 43.8036 12.5991 44.0955 12.6 44.3982L12.6 44.4L12.6 51.6V51.6015C12.5993 51.9057 12.7141 52.1989 12.9213 52.4216C13.1284 52.6444 13.4125 52.7802 13.7159 52.8015L13.7174 52.8016L23.6169 53.5216L24.0507 53.5531L24.1557 53.9753C24.7396 56.3249 25.6692 58.5749 26.9139 60.6515L27.137 61.0238L26.8533 61.3522L20.374 68.8542C20.1762 69.0836 20.0724 69.3793 20.0835 69.682C20.0947 69.9847 20.2198 70.272 20.434 70.4862L25.5239 75.5764C25.7381 75.7906 26.0253 75.9157 26.328 75.9269C26.6304 75.938 26.9259 75.8344 27.1552 75.6369C27.1554 75.6367 27.1555 75.6366 27.1557 75.6364L34.6458 69.1465L34.975 68.8613L35.3482 69.086C37.4239 70.3356 39.6738 71.2699 42.0241 71.8583L42.4453 71.9638L42.4768 72.3969L43.1965 82.2936C43.1965 82.294 43.1966 82.2945 43.1966 82.2949C43.2205 82.5962 43.3572 82.8774 43.5794 83.0822C43.8019 83.2874 44.0938 83.4009 44.3964 83.4L44.3982 83.4L51.5979 83.4H51.5993C51.9035 83.4007 52.1966 83.2859 52.4194 83.0787C52.6422 82.8716 52.7779 82.5875 52.7992 82.284L52.7993 82.2825L53.5193 72.3825L53.5508 71.9486L53.973 71.8437C56.3225 71.2597 58.5723 70.3301 60.6489 69.0854L61.0211 68.8622L61.3495 69.1459L68.8512 75.6256L20.423 25.5247ZM20.423 25.5247L25.5131 20.4344C25.5131 20.4343 25.5131 20.4343 25.5132 20.4343C25.7274 20.2202 26.0146 20.0951 26.3172 20.0839C26.6197 20.0728 26.9152 20.1765 27.1446 20.3741L20.423 25.5247ZM68.8582 61.0237L69.1434 61.3529M68.8582 61.0237L69.1434 61.3529M69.1434 61.3529L75.6329 68.8434C75.6331 68.8436 75.6332 68.8437 75.6333 68.8439C75.8309 69.0732 75.9345 69.3687 75.9234 69.6712C75.9122 69.9739 75.787 70.2612 75.5729 70.4754L70.483 75.5656C70.2688 75.7797 69.9815 75.9049 69.6789 75.9161C69.3764 75.9272 69.0809 75.8235 68.8515 75.6259L69.1434 61.3529ZM43.1692 12.4806C42.8352 12.7906 42.6312 13.2158 42.5983 13.6704L43.1692 12.4806ZM12 44.4V51.6V44.4ZM44.3982 84H51.5979L43.1727 83.5233C43.5065 83.8311 43.9442 84.0014 44.3982 84ZM41.6649 57.4787C43.5395 58.7314 45.7435 59.4 47.998 59.4C51.0214 59.4 53.9209 58.1989 56.0587 56.061C58.1965 53.9231 59.3975 51.0235 59.3975 48C59.3975 45.7453 58.7289 43.5412 57.4763 41.6665C56.2237 39.7918 54.4434 38.3306 52.3604 37.4678C50.2774 36.6049 47.9854 36.3792 45.7741 36.819C43.5628 37.2589 41.5317 38.3447 39.9374 39.939C38.3432 41.5333 37.2575 43.5646 36.8177 45.776C36.3778 47.9874 36.6036 50.2795 37.4664 52.3626C38.3292 54.4457 39.7902 56.2261 41.6649 57.4787Z" stroke="url(#paint7_linear_202_2034)" stroke-opacity="0.1" stroke-width="1.2"/>
</g>
</g>
<defs>
<filter id="filter0_bi_202_2034" x="-12" y="-12" width="119.996" height="120" filterUnits="userSpaceOnUse" color-interpolation-filters="sRGB">
<feFlood flood-opacity="0" result="BackgroundImageFix"/>
<feGaussianBlur in="BackgroundImageFix" stdDeviation="12"/>
<feComposite in2="SourceAlpha" operator="in" result="effect1_backgroundBlur_202_2034"/>
<feBlend mode="normal" in="SourceGraphic" in2="effect1_backgroundBlur_202_2034" result="shape"/>
<feColorMatrix in="SourceAlpha" type="matrix" values="0 0 0 0 0 0 0 0 0 0 0 0 0 0 0 0 0 0 127 0" result="hardAlpha"/>
<feOffset dy="8"/>
<feGaussianBlur stdDeviation="6"/>
<feComposite in2="hardAlpha" operator="arithmetic" k2="-1" k3="1"/>
<feColorMatrix type="matrix" values="0 0 0 0 1 0 0 0 0 1 0 0 0 0 1 0 0 0 0.15 0"/>
<feBlend mode="normal" in2="shape" result="effect2_innerShadow_202_2034"/>
</filter>
<linearGradient id="paint0_linear_202_2034" x1="73.7846" y1="7.51904" x2="94.5689" y2="8.96219" gradientUnits="userSpaceOnUse">
<stop stop-color="#8AE6CF"/>
<stop offset="1" stop-color="#7C3AE7"/>
</linearGradient>
<linearGradient id="paint1_linear_202_2034" x1="4.9822" y1="7.50879" x2="25.7101" y2="8.94605" gradientUnits="userSpaceOnUse">
<stop stop-color="#8AE6CF"/>
<stop offset="1" stop-color="#7C3AE7"/>
</linearGradient>
<linearGradient id="paint2_linear_202_2034" x1="40.3514" y1="4.6181" x2="58.7029" y2="6.47178" gradientUnits="userSpaceOnUse">
<stop stop-color="#8AE6CF"/>
<stop offset="1" stop-color="#7C3AE7"/>
</linearGradient>
<linearGradient id="paint3_linear_202_2034" x1="73.8313" y1="65.9562" x2="94.559" y2="67.3946" gradientUnits="userSpaceOnUse">
<stop stop-color="#8AE6CF"/>
<stop offset="1" stop-color="#7C3AE7"/>
</linearGradient>
<linearGradient id="paint4_linear_202_2034" x1="4.9822" y1="65.9562" x2="25.7099" y2="67.3946" gradientUnits="userSpaceOnUse">
<stop stop-color="#8AE6CF"/>
<stop offset="1" stop-color="#7C3AE7"/>
</linearGradient>
<linearGradient id="paint5_linear_202_2034" x1="40.3515" y1="77.6204" x2="58.7034" y2="79.4717" gradientUnits="userSpaceOnUse">
<stop stop-color="#8AE6CF"/>
<stop offset="1" stop-color="#7C3AE7"/>
</linearGradient>
<linearGradient id="paint6_linear_202_2034" x1="14.9998" y1="26.4" x2="93.4817" y2="37.2997" gradientUnits="userSpaceOnUse">
<stop stop-color="#66FECB"/>
<stop offset="1" stop-color="#8940FF"/>
</linearGradient>
<linearGradient id="paint7_linear_202_2034" x1="14.2499" y1="15.2727" x2="83.9961" y2="15.2727" gradientUnits="userSpaceOnUse">
<stop stop-color="#C8A6FF"/>
<stop offset="1" stop-color="#69CFB5"/>
</linearGradient>
<clipPath id="clip0_202_2034">
<rect width="96" height="96" fill="white"/>
</clipPath>
</defs>
</svg>
