<svg width="100%" height="100%" viewBox="0 0 96 96" fill="none" xmlns="http://www.w3.org/2000/svg">
<g filter="url(#filter0_bi_202_1973)">
<path d="M32.3152 41.0845C32.1808 40.8397 31.9844 40.6345 31.7459 40.4893L18.8419 32.6034C18.5888 32.4489 18.298 32.3672 18.0015 32.3672C17.705 32.3672 17.4142 32.4489 17.1612 32.6034L4.25719 40.4893C4.01862 40.6345 3.82229 40.8397 3.68781 41.0845L18.0015 49.8334L32.3152 41.0845Z" fill="url(#paint0_linear_202_1973)"/>
<path d="M3.68781 41.0845C3.55476 41.3238 3.48329 41.5944 3.48303 41.8681V56.1883C3.48319 56.4646 3.55432 56.7362 3.68961 56.9772C3.8249 57.2181 4.01981 57.4202 4.25566 57.5642L17.1596 65.4501C17.4126 65.6049 17.7034 65.6869 18 65.6872L18.0015 49.8334L3.68781 41.0845Z" fill="url(#paint1_linear_202_1973)"/>
<path d="M32.3152 41.0845C32.4483 41.3238 32.5167 41.5944 32.5169 41.8681V56.1883C32.5168 56.4646 32.4457 56.7362 32.3104 56.9772C32.1751 57.2181 31.9802 57.4202 31.7443 57.5642L18.8404 65.4501C18.5874 65.6049 18.2966 65.6869 18 65.6872L18.0015 49.8334L32.3152 41.0845Z" fill="url(#paint2_linear_202_1973)"/>
</g>
<g filter="url(#filter1_bi_202_1973)">
<path d="M32.3166 41.0845C32.1821 40.8397 31.9858 40.6345 31.7472 40.4893L18.8432 32.6034C18.5901 32.4489 18.2994 32.3672 18.0029 32.3672C17.7064 32.3672 17.4156 32.4489 17.1625 32.6034L4.25854 40.4893C4.01996 40.6345 3.82363 40.8397 3.68915 41.0845L18.0029 49.8334L32.3166 41.0845Z" fill="url(#paint3_linear_202_1973)"/>
<path d="M3.68915 41.0845C3.55611 41.3238 3.48463 41.5944 3.48438 41.8681V56.1883C3.48453 56.4646 3.55566 56.7362 3.69095 56.9772C3.82624 57.2181 4.02115 57.4202 4.257 57.5642L17.161 65.4501C17.414 65.6049 17.7047 65.6869 18.0013 65.6872L18.0029 49.8334L3.68915 41.0845Z" fill="url(#paint4_linear_202_1973)"/>
<path d="M32.3166 41.0845C32.4496 41.3238 32.518 41.5944 32.5183 41.8681V56.1883C32.5181 56.4646 32.447 56.7362 32.3117 56.9772C32.1764 57.2181 31.9815 57.4202 31.7457 57.5642L18.8417 65.4501C18.5887 65.6049 18.2979 65.6869 18.0013 65.6872L18.0029 49.8334L32.3166 41.0845Z" fill="url(#paint5_linear_202_1973)"/>
</g>
<g filter="url(#filter2_bi_202_1973)">
<path d="M62.3166 21.8462C62.1821 21.6014 61.9858 21.3962 61.7472 21.251L48.8432 13.3651C48.5901 13.2106 48.2994 13.1289 48.0029 13.1289C47.7064 13.1289 47.4156 13.2106 47.1625 13.3651L34.2585 21.251C34.02 21.3962 33.8236 21.6014 33.6891 21.8462L48.0029 30.5951L62.3166 21.8462Z" fill="url(#paint6_linear_202_1973)"/>
<path d="M33.6891 21.8462C33.5561 22.0855 33.4846 22.3561 33.4844 22.6299V36.95C33.4845 37.2263 33.5557 37.4979 33.691 37.7389C33.8262 37.9798 34.0212 38.1819 34.257 38.3259L47.161 46.2118C47.414 46.3666 47.7047 46.4486 48.0013 46.4489L48.0029 30.5951L33.6891 21.8462Z" fill="url(#paint7_linear_202_1973)"/>
<path d="M62.3166 21.8462C62.4496 22.0855 62.518 22.3561 62.5183 22.6299V36.95C62.5181 37.2263 62.447 37.4979 62.3117 37.7389C62.1764 37.9798 61.9815 38.1819 61.7457 38.3259L48.8417 46.2118C48.5887 46.3666 48.2979 46.4486 48.0013 46.4489L48.0029 30.5951L62.3166 21.8462Z" fill="url(#paint8_linear_202_1973)"/>
</g>
<g filter="url(#filter3_bi_202_1973)">
<path d="M92.3166 41.0838C92.1821 40.839 91.9858 40.6338 91.7472 40.4886L78.8432 32.6027C78.5901 32.4482 78.2994 32.3665 78.0029 32.3665C77.7064 32.3665 77.4156 32.4482 77.1625 32.6027L64.2585 40.4886C64.02 40.6338 63.8236 40.839 63.6891 41.0838L78.0029 49.8326L92.3166 41.0838Z" fill="url(#paint9_linear_202_1973)"/>
<path d="M63.6891 41.0838C63.5561 41.3231 63.4846 41.5936 63.4844 41.8674V56.1875C63.4845 56.4639 63.5557 56.7355 63.691 56.9764C63.8262 57.2173 64.0212 57.4195 64.257 57.5634L77.161 65.4493C77.414 65.6041 77.7047 65.6862 78.0013 65.6865L78.0029 49.8326L63.6891 41.0838Z" fill="url(#paint10_linear_202_1973)"/>
<path d="M92.3166 41.0838C92.4496 41.3231 92.518 41.5936 92.5183 41.8674V56.1875C92.5181 56.4639 92.447 56.7355 92.3117 56.9764C92.1764 57.2173 91.9815 57.4195 91.7457 57.5634L78.8417 65.4493C78.5887 65.6041 78.2979 65.6862 78.0013 65.6865L78.0029 49.8326L92.3166 41.0838Z" fill="url(#paint11_linear_202_1973)"/>
</g>
<g filter="url(#filter4_bi_202_1973)">
<path d="M62.3159 63.148C62.1814 62.9032 61.9851 62.698 61.7465 62.5528L48.8425 54.6669C48.5894 54.5124 48.2987 54.4307 48.0022 54.4307C47.7057 54.4307 47.4149 54.5124 47.1618 54.6669L34.2578 62.5528C34.0193 62.698 33.8229 62.9032 33.6884 63.148L48.0022 71.8968L62.3159 63.148Z" fill="url(#paint12_linear_202_1973)"/>
<path d="M33.6884 63.148C33.5554 63.3873 33.4839 63.6578 33.4837 63.9316V78.2518C33.4838 78.5281 33.555 78.7997 33.6902 79.0406C33.8255 79.2816 34.0205 79.4837 34.2563 79.6276L47.1603 87.5136C47.4133 87.6684 47.704 87.7504 48.0006 87.7507L48.0022 71.8968L33.6884 63.148Z" fill="url(#paint13_linear_202_1973)"/>
<path d="M62.3159 63.148C62.4489 63.3873 62.5173 63.6578 62.5176 63.9316V78.2518C62.5174 78.5281 62.4463 78.7997 62.311 79.0406C62.1757 79.2816 61.9808 79.4837 61.745 79.6276L48.841 87.5136C48.588 87.6684 48.2972 87.7504 48.0006 87.7507L48.0022 71.8968L62.3159 63.148Z" fill="url(#paint14_linear_202_1973)"/>
</g>
<g filter="url(#filter5_bi_202_1973)">
<path d="M65.748 20.8108C65.5813 20.5073 65.3378 20.2529 65.042 20.0728L49.042 10.2948C48.7282 10.1033 48.3676 10.002 48 10.002C47.6323 10.002 47.2718 10.1033 46.958 10.2948L30.958 20.0728C30.6622 20.2529 30.4187 20.5073 30.252 20.8108L48 31.6568L65.748 20.8108Z" fill="#1D1D1D" fill-opacity="0.05"/>
<path d="M65.748 20.8108C65.5813 20.5073 65.3378 20.2529 65.042 20.0728L49.042 10.2948C48.7282 10.1033 48.3676 10.002 48 10.002C47.6323 10.002 47.2718 10.1033 46.958 10.2948L30.958 20.0728C30.6622 20.2529 30.4187 20.5073 30.252 20.8108L48 31.6568L65.748 20.8108Z" fill="url(#paint15_linear_202_1973)" fill-opacity="0.2"/>
<path d="M48 30.9537L31.1579 20.6613C31.1939 20.6343 31.2313 20.6089 31.2699 20.5854L31.2709 20.5848L47.2706 10.807C47.2706 10.8069 47.2707 10.8069 47.2708 10.8069C47.2708 10.8069 47.2708 10.8068 47.2709 10.8068C47.4905 10.6728 47.7427 10.602 48 10.602C48.2572 10.602 48.5095 10.6728 48.7291 10.8068C48.7292 10.8069 48.7293 10.8069 48.7294 10.807L64.7291 20.5848L64.7301 20.5854C64.7687 20.6089 64.8061 20.6343 64.8421 20.6613L48 30.9537Z" stroke="url(#paint16_linear_202_1973)" stroke-opacity="0.1" stroke-width="1.2"/>
</g>
<g filter="url(#filter6_bi_202_1973)">
<path d="M30.252 20.8105C30.0874 21.1067 30.0007 21.4397 30 21.7785V39.5345C30.0002 39.8772 30.0884 40.214 30.2561 40.5127C30.4239 40.8114 30.6656 41.0621 30.958 41.2405L46.958 51.0185C47.2717 51.2105 47.6322 51.3122 48 51.3125V31.6565L30.252 20.8105Z" fill="#1D1D1D" fill-opacity="0.05"/>
<path d="M30.252 20.8105C30.0874 21.1067 30.0007 21.4397 30 21.7785V39.5345C30.0002 39.8772 30.0884 40.214 30.2561 40.5127C30.4239 40.8114 30.6656 41.0621 30.958 41.2405L46.958 51.0185C47.2717 51.2105 47.6322 51.3122 48 51.3125V31.6565L30.252 20.8105Z" fill="url(#paint17_linear_202_1973)" fill-opacity="0.2"/>
<path d="M30.6011 21.727C30.6004 21.7444 30.6 21.7618 30.6 21.7792V39.5344L30.6011 21.727ZM30.6011 21.727L47.4 31.993V50.5766C47.356 50.5556 47.313 50.5323 47.2711 50.5067L47.2709 50.5066L31.2709 40.7286L31.2706 40.7284C31.0659 40.6035 30.8967 40.428 30.7793 40.2189C30.6619 40.0099 30.6002 39.7743 30.6 39.5345L30.6011 21.727Z" stroke="url(#paint18_linear_202_1973)" stroke-opacity="0.1" stroke-width="1.2"/>
</g>
<g filter="url(#filter7_bi_202_1973)">
<path d="M65.748 20.8105C65.9126 21.1067 65.9993 21.4397 66 21.7785V39.5345C65.9998 39.8772 65.9116 40.214 65.7439 40.5127C65.5761 40.8114 65.3344 41.0621 65.042 41.2405L49.042 51.0185C48.7283 51.2105 48.3678 51.3122 48 51.3125V31.6565L65.748 20.8105Z" fill="#1D1D1D" fill-opacity="0.05"/>
<path d="M65.748 20.8105C65.9126 21.1067 65.9993 21.4397 66 21.7785V39.5345C65.9998 39.8772 65.9116 40.214 65.7439 40.5127C65.5761 40.8114 65.3344 41.0621 65.042 41.2405L49.042 51.0185C48.7283 51.2105 48.3678 51.3122 48 51.3125V31.6565L65.748 20.8105Z" fill="url(#paint19_linear_202_1973)" fill-opacity="0.2"/>
<path d="M64.7294 40.7284L64.7291 40.7286L48.7291 50.5066L48.7289 50.5067C48.687 50.5323 48.644 50.5556 48.6 50.5766V31.993L65.3989 21.727C65.3996 21.7443 65.4 21.7616 65.4 21.7789C65.4 21.7791 65.4 21.7794 65.4 21.7797L65.4 39.5342C65.3999 39.774 65.3381 40.0098 65.2207 40.2189C65.1033 40.428 64.9341 40.6035 64.7294 40.7284Z" stroke="url(#paint20_linear_202_1973)" stroke-opacity="0.1" stroke-width="1.2"/>
</g>
<g filter="url(#filter8_bi_202_1973)">
<path d="M95.748 39.178C95.5813 38.8745 95.3378 38.6201 95.042 38.44L79.042 28.662C78.7282 28.4705 78.3677 28.3691 78 28.3691C77.6323 28.3691 77.2718 28.4705 76.958 28.662L60.958 38.44C60.6622 38.6201 60.4187 38.8745 60.252 39.178L78 50.026L95.748 39.178Z" fill="#1D1D1D" fill-opacity="0.05"/>
<path d="M95.748 39.178C95.5813 38.8745 95.3378 38.6201 95.042 38.44L79.042 28.662C78.7282 28.4705 78.3677 28.3691 78 28.3691C77.6323 28.3691 77.2718 28.4705 76.958 28.662L60.958 38.44C60.6622 38.6201 60.4187 38.8745 60.252 39.178L78 50.026L95.748 39.178Z" fill="url(#paint21_linear_202_1973)" fill-opacity="0.2"/>
<path d="M78 49.3228L61.1579 39.0285C61.1939 39.0015 61.2313 38.9761 61.2699 38.9526L61.2709 38.952L77.2706 29.1742C77.2707 29.1741 77.2708 29.174 77.2709 29.174C77.4905 29.04 77.7427 28.9691 78 28.9691C78.2572 28.9691 78.5095 29.04 78.7291 29.174C78.7292 29.174 78.7293 29.1741 78.7294 29.1742L94.7291 38.952L94.7301 38.9526C94.7687 38.9761 94.8061 39.0015 94.8421 39.0285L78 49.3228Z" stroke="url(#paint22_linear_202_1973)" stroke-opacity="0.1" stroke-width="1.2"/>
</g>
<g filter="url(#filter9_bi_202_1973)">
<path d="M60.252 39.1797C60.087 39.4764 60.0003 39.8102 60 40.1497V57.9057C60.0002 58.2483 60.0884 58.5851 60.2561 58.8838C60.4239 59.1826 60.6656 59.4332 60.958 59.6117L76.958 69.3897C77.2717 69.5816 77.6322 69.6833 78 69.6837V50.0277L60.252 39.1797Z" fill="#1D1D1D" fill-opacity="0.05"/>
<path d="M60.252 39.1797C60.087 39.4764 60.0003 39.8102 60 40.1497V57.9057C60.0002 58.2483 60.0884 58.5851 60.2561 58.8838C60.4239 59.1826 60.6656 59.4332 60.958 59.6117L76.958 69.3897C77.2717 69.5816 77.6322 69.6833 78 69.6837V50.0277L60.252 39.1797Z" fill="url(#paint23_linear_202_1973)" fill-opacity="0.2"/>
<path d="M60.6011 40.0963C60.6004 40.1141 60.6 40.1321 60.6 40.15V57.9055L60.6011 40.0963ZM60.6011 40.0963L77.4 50.3642V68.9477C77.356 68.9268 77.313 68.9035 77.2711 68.8779L77.2709 68.8777L61.2709 59.0997L61.2706 59.0996C61.0659 58.9746 60.8967 58.7992 60.7793 58.5901C60.6619 58.381 60.6002 58.1454 60.6 57.9057L60.6011 40.0963Z" stroke="url(#paint24_linear_202_1973)" stroke-opacity="0.1" stroke-width="1.2"/>
</g>
<g filter="url(#filter10_bi_202_1973)">
<path d="M95.748 39.1797C95.913 39.4764 95.9997 39.8102 96 40.1497V57.9057C95.9998 58.2483 95.9116 58.5851 95.7439 58.8838C95.5761 59.1826 95.3344 59.4332 95.042 59.6117L79.042 69.3897C78.7283 69.5816 78.3678 69.6833 78 69.6837V50.0277L95.748 39.1797Z" fill="#1D1D1D" fill-opacity="0.05"/>
<path d="M95.748 39.1797C95.913 39.4764 95.9997 39.8102 96 40.1497V57.9057C95.9998 58.2483 95.9116 58.5851 95.7439 58.8838C95.5761 59.1826 95.3344 59.4332 95.042 59.6117L79.042 69.3897C78.7283 69.5816 78.3678 69.6833 78 69.6837V50.0277L95.748 39.1797Z" fill="url(#paint25_linear_202_1973)" fill-opacity="0.2"/>
<path d="M94.7294 59.0996L94.7291 59.0997L78.7291 68.8777L78.7289 68.8779C78.687 68.9035 78.644 68.9268 78.6 68.9477V50.3642L95.3989 40.0963C95.3996 40.1142 95.4 40.1322 95.4 40.1502V57.9054C95.3999 58.1452 95.3381 58.3809 95.2207 58.5901C95.1033 58.7992 94.9341 58.9746 94.7294 59.0996Z" stroke="url(#paint26_linear_202_1973)" stroke-opacity="0.1" stroke-width="1.2"/>
</g>
<g filter="url(#filter11_bi_202_1973)">
<path d="M35.748 39.178C35.5813 38.8745 35.3378 38.6201 35.042 38.44L19.042 28.662C18.7282 28.4705 18.3677 28.3691 18 28.3691C17.6324 28.3691 17.2718 28.4705 16.958 28.662L0.958014 38.44C0.662193 38.6201 0.418761 38.8745 0.252014 39.178L18 50.026L35.748 39.178Z" fill="#1D1D1D" fill-opacity="0.05"/>
<path d="M35.748 39.178C35.5813 38.8745 35.3378 38.6201 35.042 38.44L19.042 28.662C18.7282 28.4705 18.3677 28.3691 18 28.3691C17.6324 28.3691 17.2718 28.4705 16.958 28.662L0.958014 38.44C0.662193 38.6201 0.418761 38.8745 0.252014 39.178L18 50.026L35.748 39.178Z" fill="url(#paint27_linear_202_1973)" fill-opacity="0.2"/>
<path d="M18 49.3228L1.1579 39.0285C1.19389 39.0015 1.23127 38.9761 1.26994 38.9526L1.27089 38.952L17.2706 29.1742C17.2707 29.1741 17.2708 29.174 17.2709 29.174C17.4905 29.04 17.7427 28.9691 18 28.9691C18.2573 28.9691 18.5095 29.04 18.7291 29.174C18.7292 29.174 18.7293 29.1741 18.7294 29.1742L34.7291 38.952L34.7301 38.9526C34.7688 38.9761 34.8061 39.0015 34.8421 39.0285L18 49.3228Z" stroke="url(#paint28_linear_202_1973)" stroke-opacity="0.1" stroke-width="1.2"/>
</g>
<g filter="url(#filter12_bi_202_1973)">
<path d="M0.252 39.1797C0.0870373 39.4764 0.000314594 39.8102 0 40.1497L0 57.9057C0.000190753 58.2483 0.0883891 58.5851 0.256139 58.8838C0.423889 59.1826 0.665566 59.4332 0.958 59.6117L16.958 69.3897C17.2717 69.5816 17.6322 69.6833 18 69.6837V50.0277L0.252 39.1797Z" fill="#1D1D1D" fill-opacity="0.05"/>
<path d="M0.252 39.1797C0.0870373 39.4764 0.000314594 39.8102 0 40.1497L0 57.9057C0.000190753 58.2483 0.0883891 58.5851 0.256139 58.8838C0.423889 59.1826 0.665566 59.4332 0.958 59.6117L16.958 69.3897C17.2717 69.5816 17.6322 69.6833 18 69.6837V50.0277L0.252 39.1797Z" fill="url(#paint29_linear_202_1973)" fill-opacity="0.2"/>
<path d="M0.601091 40.0963C0.600384 40.1141 0.60002 40.1321 0.6 40.15V57.9055L0.601091 40.0963ZM0.601091 40.0963L17.4 50.3642V68.9477C17.356 68.9268 17.313 68.9035 17.2711 68.8779L17.2709 68.8777L1.27088 59.0997L1.2706 59.0996C1.0659 58.9746 0.896722 58.7992 0.779298 58.5901C0.661927 58.381 0.600191 58.1454 0.6 57.9057L0.601091 40.0963Z" stroke="url(#paint30_linear_202_1973)" stroke-opacity="0.1" stroke-width="1.2"/>
</g>
<g filter="url(#filter13_bi_202_1973)">
<path d="M35.748 39.1797C35.913 39.4764 35.9997 39.8102 36 40.1497V57.9057C35.9998 58.2483 35.9116 58.5851 35.7439 58.8838C35.5761 59.1826 35.3344 59.4332 35.042 59.6117L19.042 69.3897C18.7283 69.5816 18.3678 69.6833 18 69.6837V50.0277L35.748 39.1797Z" fill="#1D1D1D" fill-opacity="0.05"/>
<path d="M35.748 39.1797C35.913 39.4764 35.9997 39.8102 36 40.1497V57.9057C35.9998 58.2483 35.9116 58.5851 35.7439 58.8838C35.5761 59.1826 35.3344 59.4332 35.042 59.6117L19.042 69.3897C18.7283 69.5816 18.3678 69.6833 18 69.6837V50.0277L35.748 39.1797Z" fill="url(#paint31_linear_202_1973)" fill-opacity="0.2"/>
<path d="M34.7294 59.0996L34.7291 59.0997L18.7291 68.8777L18.7289 68.8779C18.687 68.9035 18.644 68.9268 18.6 68.9477V50.3642L35.3989 40.0963C35.3996 40.1142 35.4 40.1322 35.4 40.1502V57.9054C35.3999 58.1452 35.3381 58.3809 35.2207 58.5901C35.1033 58.7992 34.9341 58.9746 34.7294 59.0996Z" stroke="url(#paint32_linear_202_1973)" stroke-opacity="0.1" stroke-width="1.2"/>
</g>
<g filter="url(#filter14_bi_202_1973)">
<path d="M65.748 59.1546C65.5813 58.8511 65.3378 58.5966 65.042 58.4166L49.042 48.6386C48.7282 48.447 48.3676 48.3457 48 48.3457C47.6323 48.3457 47.2718 48.447 46.958 48.6386L30.958 58.4166C30.6622 58.5966 30.4187 58.8511 30.252 59.1546L48 70.0006L65.748 59.1546Z" fill="#1D1D1D" fill-opacity="0.05"/>
<path d="M65.748 59.1546C65.5813 58.8511 65.3378 58.5966 65.042 58.4166L49.042 48.6386C48.7282 48.447 48.3676 48.3457 48 48.3457C47.6323 48.3457 47.2718 48.447 46.958 48.6386L30.958 58.4166C30.6622 58.5966 30.4187 58.8511 30.252 59.1546L48 70.0006L65.748 59.1546Z" fill="url(#paint33_linear_202_1973)" fill-opacity="0.2"/>
<path d="M48 69.2974L31.1579 59.0051C31.1939 58.978 31.2313 58.9527 31.2699 58.9291L31.2709 58.9286L47.2706 49.1507C47.2706 49.1507 47.2707 49.1507 47.2708 49.1506C47.2708 49.1506 47.2708 49.1506 47.2709 49.1506C47.4905 49.0166 47.7428 48.9457 48 48.9457C48.2572 48.9457 48.5095 49.0166 48.7291 49.1506C48.7292 49.1506 48.7293 49.1507 48.7294 49.1507L64.7291 58.9286L64.7301 58.9291C64.7687 58.9527 64.8061 58.978 64.8421 59.0051L48 69.2974Z" stroke="url(#paint34_linear_202_1973)" stroke-opacity="0.1" stroke-width="1.2"/>
</g>
<g filter="url(#filter15_bi_202_1973)">
<path d="M30.252 59.1543C30.0874 59.4504 30.0007 59.7835 30 60.1223V77.8783C30.0002 78.2209 30.0884 78.5577 30.2561 78.8564C30.4239 79.1552 30.6656 79.4058 30.958 79.5843L46.958 89.3623C47.2717 89.5542 47.6322 89.656 48 89.6563V70.0003L30.252 59.1543Z" fill="#1D1D1D" fill-opacity="0.05"/>
<path d="M30.252 59.1543C30.0874 59.4504 30.0007 59.7835 30 60.1223V77.8783C30.0002 78.2209 30.0884 78.5577 30.2561 78.8564C30.4239 79.1552 30.6656 79.4058 30.958 79.5843L46.958 89.3623C47.2717 89.5542 47.6322 89.656 48 89.6563V70.0003L30.252 59.1543Z" fill="url(#paint35_linear_202_1973)" fill-opacity="0.2"/>
<path d="M30.6011 60.0708C30.6004 60.0881 30.6 60.1055 30.6 60.1229V77.8782L30.6011 60.0708ZM30.6011 60.0708L47.4 70.3368V88.9203C47.356 88.8994 47.313 88.8761 47.2711 88.8505L47.2709 88.8503L31.2709 79.0723L31.2706 79.0722C31.0659 78.9472 30.8967 78.7718 30.7793 78.5627C30.6619 78.3537 30.6002 78.118 30.6 77.8783L30.6011 60.0708Z" stroke="url(#paint36_linear_202_1973)" stroke-opacity="0.1" stroke-width="1.2"/>
</g>
<g filter="url(#filter16_bi_202_1973)">
<path d="M65.748 59.1543C65.9126 59.4504 65.9993 59.7835 66 60.1223V77.8783C65.9998 78.2209 65.9116 78.5577 65.7439 78.8564C65.5761 79.1552 65.3344 79.4058 65.042 79.5843L49.042 89.3623C48.7283 89.5542 48.3678 89.656 48 89.6563V70.0003L65.748 59.1543Z" fill="#1D1D1D" fill-opacity="0.05"/>
<path d="M65.748 59.1543C65.9126 59.4504 65.9993 59.7835 66 60.1223V77.8783C65.9998 78.2209 65.9116 78.5577 65.7439 78.8564C65.5761 79.1552 65.3344 79.4058 65.042 79.5843L49.042 89.3623C48.7283 89.5542 48.3678 89.656 48 89.6563V70.0003L65.748 59.1543Z" fill="url(#paint37_linear_202_1973)" fill-opacity="0.2"/>
<path d="M64.7294 79.0722L64.7291 79.0723L48.7291 88.8503L48.7289 88.8505C48.687 88.8761 48.644 88.8994 48.6 88.9203V70.3368L65.3989 60.0708C65.3996 60.088 65.4 60.1053 65.4 60.1226C65.4 60.1229 65.4 60.1232 65.4 60.1235L65.4 77.878C65.3999 78.1178 65.3381 78.3536 65.2207 78.5627C65.1033 78.7718 64.9341 78.9472 64.7294 79.0722Z" stroke="url(#paint38_linear_202_1973)" stroke-opacity="0.1" stroke-width="1.2"/>
</g>
<defs>
<filter id="filter0_bi_202_1973" x="-6.19493" y="22.6892" width="48.3898" height="52.6759" filterUnits="userSpaceOnUse" color-interpolation-filters="sRGB">
<feFlood flood-opacity="0" result="BackgroundImageFix"/>
<feGaussianBlur in="BackgroundImageFix" stdDeviation="4.83898"/>
<feComposite in2="SourceAlpha" operator="in" result="effect1_backgroundBlur_202_1973"/>
<feBlend mode="normal" in="SourceGraphic" in2="effect1_backgroundBlur_202_1973" result="shape"/>
<feColorMatrix in="SourceAlpha" type="matrix" values="0 0 0 0 0 0 0 0 0 0 0 0 0 0 0 0 0 0 127 0" result="hardAlpha"/>
<feOffset dy="1.61299"/>
<feGaussianBlur stdDeviation="3.22599"/>
<feComposite in2="hardAlpha" operator="arithmetic" k2="-1" k3="1"/>
<feColorMatrix type="matrix" values="0 0 0 0 1 0 0 0 0 1 0 0 0 0 1 0 0 0 0.4 0"/>
<feBlend mode="normal" in2="shape" result="effect2_innerShadow_202_1973"/>
</filter>
<filter id="filter1_bi_202_1973" x="-6.19358" y="22.6892" width="48.3898" height="52.6759" filterUnits="userSpaceOnUse" color-interpolation-filters="sRGB">
<feFlood flood-opacity="0" result="BackgroundImageFix"/>
<feGaussianBlur in="BackgroundImageFix" stdDeviation="4.83898"/>
<feComposite in2="SourceAlpha" operator="in" result="effect1_backgroundBlur_202_1973"/>
<feBlend mode="normal" in="SourceGraphic" in2="effect1_backgroundBlur_202_1973" result="shape"/>
<feColorMatrix in="SourceAlpha" type="matrix" values="0 0 0 0 0 0 0 0 0 0 0 0 0 0 0 0 0 0 127 0" result="hardAlpha"/>
<feOffset dy="1.61299"/>
<feGaussianBlur stdDeviation="3.22599"/>
<feComposite in2="hardAlpha" operator="arithmetic" k2="-1" k3="1"/>
<feColorMatrix type="matrix" values="0 0 0 0 1 0 0 0 0 1 0 0 0 0 1 0 0 0 0.4 0"/>
<feBlend mode="normal" in2="shape" result="effect2_innerShadow_202_1973"/>
</filter>
<filter id="filter2_bi_202_1973" x="23.8064" y="3.45095" width="48.3898" height="52.6759" filterUnits="userSpaceOnUse" color-interpolation-filters="sRGB">
<feFlood flood-opacity="0" result="BackgroundImageFix"/>
<feGaussianBlur in="BackgroundImageFix" stdDeviation="4.83898"/>
<feComposite in2="SourceAlpha" operator="in" result="effect1_backgroundBlur_202_1973"/>
<feBlend mode="normal" in="SourceGraphic" in2="effect1_backgroundBlur_202_1973" result="shape"/>
<feColorMatrix in="SourceAlpha" type="matrix" values="0 0 0 0 0 0 0 0 0 0 0 0 0 0 0 0 0 0 127 0" result="hardAlpha"/>
<feOffset dy="1.61299"/>
<feGaussianBlur stdDeviation="3.22599"/>
<feComposite in2="hardAlpha" operator="arithmetic" k2="-1" k3="1"/>
<feColorMatrix type="matrix" values="0 0 0 0 1 0 0 0 0 1 0 0 0 0 1 0 0 0 0.4 0"/>
<feBlend mode="normal" in2="shape" result="effect2_innerShadow_202_1973"/>
</filter>
<filter id="filter3_bi_202_1973" x="53.8064" y="22.6885" width="48.3898" height="52.6759" filterUnits="userSpaceOnUse" color-interpolation-filters="sRGB">
<feFlood flood-opacity="0" result="BackgroundImageFix"/>
<feGaussianBlur in="BackgroundImageFix" stdDeviation="4.83898"/>
<feComposite in2="SourceAlpha" operator="in" result="effect1_backgroundBlur_202_1973"/>
<feBlend mode="normal" in="SourceGraphic" in2="effect1_backgroundBlur_202_1973" result="shape"/>
<feColorMatrix in="SourceAlpha" type="matrix" values="0 0 0 0 0 0 0 0 0 0 0 0 0 0 0 0 0 0 127 0" result="hardAlpha"/>
<feOffset dy="1.61299"/>
<feGaussianBlur stdDeviation="3.22599"/>
<feComposite in2="hardAlpha" operator="arithmetic" k2="-1" k3="1"/>
<feColorMatrix type="matrix" values="0 0 0 0 1 0 0 0 0 1 0 0 0 0 1 0 0 0 0.4 0"/>
<feBlend mode="normal" in2="shape" result="effect2_innerShadow_202_1973"/>
</filter>
<filter id="filter4_bi_202_1973" x="23.8057" y="44.7527" width="48.3898" height="52.6759" filterUnits="userSpaceOnUse" color-interpolation-filters="sRGB">
<feFlood flood-opacity="0" result="BackgroundImageFix"/>
<feGaussianBlur in="BackgroundImageFix" stdDeviation="4.83898"/>
<feComposite in2="SourceAlpha" operator="in" result="effect1_backgroundBlur_202_1973"/>
<feBlend mode="normal" in="SourceGraphic" in2="effect1_backgroundBlur_202_1973" result="shape"/>
<feColorMatrix in="SourceAlpha" type="matrix" values="0 0 0 0 0 0 0 0 0 0 0 0 0 0 0 0 0 0 127 0" result="hardAlpha"/>
<feOffset dy="1.61299"/>
<feGaussianBlur stdDeviation="3.22599"/>
<feComposite in2="hardAlpha" operator="arithmetic" k2="-1" k3="1"/>
<feColorMatrix type="matrix" values="0 0 0 0 1 0 0 0 0 1 0 0 0 0 1 0 0 0 0.4 0"/>
<feBlend mode="normal" in2="shape" result="effect2_innerShadow_202_1973"/>
</filter>
<filter id="filter5_bi_202_1973" x="6.252" y="-13.998" width="83.496" height="69.6549" filterUnits="userSpaceOnUse" color-interpolation-filters="sRGB">
<feFlood flood-opacity="0" result="BackgroundImageFix"/>
<feGaussianBlur in="BackgroundImageFix" stdDeviation="12"/>
<feComposite in2="SourceAlpha" operator="in" result="effect1_backgroundBlur_202_1973"/>
<feBlend mode="normal" in="SourceGraphic" in2="effect1_backgroundBlur_202_1973" result="shape"/>
<feColorMatrix in="SourceAlpha" type="matrix" values="0 0 0 0 0 0 0 0 0 0 0 0 0 0 0 0 0 0 127 0" result="hardAlpha"/>
<feOffset dy="8"/>
<feGaussianBlur stdDeviation="6"/>
<feComposite in2="hardAlpha" operator="arithmetic" k2="-1" k3="1"/>
<feColorMatrix type="matrix" values="0 0 0 0 1 0 0 0 0 1 0 0 0 0 1 0 0 0 0.15 0"/>
<feBlend mode="normal" in2="shape" result="effect2_innerShadow_202_1973"/>
</filter>
<filter id="filter6_bi_202_1973" x="6" y="-3.18945" width="66" height="78.502" filterUnits="userSpaceOnUse" color-interpolation-filters="sRGB">
<feFlood flood-opacity="0" result="BackgroundImageFix"/>
<feGaussianBlur in="BackgroundImageFix" stdDeviation="12"/>
<feComposite in2="SourceAlpha" operator="in" result="effect1_backgroundBlur_202_1973"/>
<feBlend mode="normal" in="SourceGraphic" in2="effect1_backgroundBlur_202_1973" result="shape"/>
<feColorMatrix in="SourceAlpha" type="matrix" values="0 0 0 0 0 0 0 0 0 0 0 0 0 0 0 0 0 0 127 0" result="hardAlpha"/>
<feOffset dy="8"/>
<feGaussianBlur stdDeviation="6"/>
<feComposite in2="hardAlpha" operator="arithmetic" k2="-1" k3="1"/>
<feColorMatrix type="matrix" values="0 0 0 0 1 0 0 0 0 1 0 0 0 0 1 0 0 0 0.15 0"/>
<feBlend mode="normal" in2="shape" result="effect2_innerShadow_202_1973"/>
</filter>
<filter id="filter7_bi_202_1973" x="24" y="-3.18945" width="66" height="78.502" filterUnits="userSpaceOnUse" color-interpolation-filters="sRGB">
<feFlood flood-opacity="0" result="BackgroundImageFix"/>
<feGaussianBlur in="BackgroundImageFix" stdDeviation="12"/>
<feComposite in2="SourceAlpha" operator="in" result="effect1_backgroundBlur_202_1973"/>
<feBlend mode="normal" in="SourceGraphic" in2="effect1_backgroundBlur_202_1973" result="shape"/>
<feColorMatrix in="SourceAlpha" type="matrix" values="0 0 0 0 0 0 0 0 0 0 0 0 0 0 0 0 0 0 127 0" result="hardAlpha"/>
<feOffset dy="8"/>
<feGaussianBlur stdDeviation="6"/>
<feComposite in2="hardAlpha" operator="arithmetic" k2="-1" k3="1"/>
<feColorMatrix type="matrix" values="0 0 0 0 1 0 0 0 0 1 0 0 0 0 1 0 0 0 0.15 0"/>
<feBlend mode="normal" in2="shape" result="effect2_innerShadow_202_1973"/>
</filter>
<filter id="filter8_bi_202_1973" x="36.252" y="4.36914" width="83.496" height="69.6569" filterUnits="userSpaceOnUse" color-interpolation-filters="sRGB">
<feFlood flood-opacity="0" result="BackgroundImageFix"/>
<feGaussianBlur in="BackgroundImageFix" stdDeviation="12"/>
<feComposite in2="SourceAlpha" operator="in" result="effect1_backgroundBlur_202_1973"/>
<feBlend mode="normal" in="SourceGraphic" in2="effect1_backgroundBlur_202_1973" result="shape"/>
<feColorMatrix in="SourceAlpha" type="matrix" values="0 0 0 0 0 0 0 0 0 0 0 0 0 0 0 0 0 0 127 0" result="hardAlpha"/>
<feOffset dy="8"/>
<feGaussianBlur stdDeviation="6"/>
<feComposite in2="hardAlpha" operator="arithmetic" k2="-1" k3="1"/>
<feColorMatrix type="matrix" values="0 0 0 0 1 0 0 0 0 1 0 0 0 0 1 0 0 0 0.15 0"/>
<feBlend mode="normal" in2="shape" result="effect2_innerShadow_202_1973"/>
</filter>
<filter id="filter9_bi_202_1973" x="36" y="15.1797" width="66" height="78.504" filterUnits="userSpaceOnUse" color-interpolation-filters="sRGB">
<feFlood flood-opacity="0" result="BackgroundImageFix"/>
<feGaussianBlur in="BackgroundImageFix" stdDeviation="12"/>
<feComposite in2="SourceAlpha" operator="in" result="effect1_backgroundBlur_202_1973"/>
<feBlend mode="normal" in="SourceGraphic" in2="effect1_backgroundBlur_202_1973" result="shape"/>
<feColorMatrix in="SourceAlpha" type="matrix" values="0 0 0 0 0 0 0 0 0 0 0 0 0 0 0 0 0 0 127 0" result="hardAlpha"/>
<feOffset dy="8"/>
<feGaussianBlur stdDeviation="6"/>
<feComposite in2="hardAlpha" operator="arithmetic" k2="-1" k3="1"/>
<feColorMatrix type="matrix" values="0 0 0 0 1 0 0 0 0 1 0 0 0 0 1 0 0 0 0.15 0"/>
<feBlend mode="normal" in2="shape" result="effect2_innerShadow_202_1973"/>
</filter>
<filter id="filter10_bi_202_1973" x="54" y="15.1797" width="66" height="78.504" filterUnits="userSpaceOnUse" color-interpolation-filters="sRGB">
<feFlood flood-opacity="0" result="BackgroundImageFix"/>
<feGaussianBlur in="BackgroundImageFix" stdDeviation="12"/>
<feComposite in2="SourceAlpha" operator="in" result="effect1_backgroundBlur_202_1973"/>
<feBlend mode="normal" in="SourceGraphic" in2="effect1_backgroundBlur_202_1973" result="shape"/>
<feColorMatrix in="SourceAlpha" type="matrix" values="0 0 0 0 0 0 0 0 0 0 0 0 0 0 0 0 0 0 127 0" result="hardAlpha"/>
<feOffset dy="8"/>
<feGaussianBlur stdDeviation="6"/>
<feComposite in2="hardAlpha" operator="arithmetic" k2="-1" k3="1"/>
<feColorMatrix type="matrix" values="0 0 0 0 1 0 0 0 0 1 0 0 0 0 1 0 0 0 0.15 0"/>
<feBlend mode="normal" in2="shape" result="effect2_innerShadow_202_1973"/>
</filter>
<filter id="filter11_bi_202_1973" x="-23.748" y="4.36914" width="83.496" height="69.6569" filterUnits="userSpaceOnUse" color-interpolation-filters="sRGB">
<feFlood flood-opacity="0" result="BackgroundImageFix"/>
<feGaussianBlur in="BackgroundImageFix" stdDeviation="12"/>
<feComposite in2="SourceAlpha" operator="in" result="effect1_backgroundBlur_202_1973"/>
<feBlend mode="normal" in="SourceGraphic" in2="effect1_backgroundBlur_202_1973" result="shape"/>
<feColorMatrix in="SourceAlpha" type="matrix" values="0 0 0 0 0 0 0 0 0 0 0 0 0 0 0 0 0 0 127 0" result="hardAlpha"/>
<feOffset dy="8"/>
<feGaussianBlur stdDeviation="6"/>
<feComposite in2="hardAlpha" operator="arithmetic" k2="-1" k3="1"/>
<feColorMatrix type="matrix" values="0 0 0 0 1 0 0 0 0 1 0 0 0 0 1 0 0 0 0.15 0"/>
<feBlend mode="normal" in2="shape" result="effect2_innerShadow_202_1973"/>
</filter>
<filter id="filter12_bi_202_1973" x="-24" y="15.1797" width="66" height="78.504" filterUnits="userSpaceOnUse" color-interpolation-filters="sRGB">
<feFlood flood-opacity="0" result="BackgroundImageFix"/>
<feGaussianBlur in="BackgroundImageFix" stdDeviation="12"/>
<feComposite in2="SourceAlpha" operator="in" result="effect1_backgroundBlur_202_1973"/>
<feBlend mode="normal" in="SourceGraphic" in2="effect1_backgroundBlur_202_1973" result="shape"/>
<feColorMatrix in="SourceAlpha" type="matrix" values="0 0 0 0 0 0 0 0 0 0 0 0 0 0 0 0 0 0 127 0" result="hardAlpha"/>
<feOffset dy="8"/>
<feGaussianBlur stdDeviation="6"/>
<feComposite in2="hardAlpha" operator="arithmetic" k2="-1" k3="1"/>
<feColorMatrix type="matrix" values="0 0 0 0 1 0 0 0 0 1 0 0 0 0 1 0 0 0 0.15 0"/>
<feBlend mode="normal" in2="shape" result="effect2_innerShadow_202_1973"/>
</filter>
<filter id="filter13_bi_202_1973" x="-6" y="15.1797" width="66" height="78.504" filterUnits="userSpaceOnUse" color-interpolation-filters="sRGB">
<feFlood flood-opacity="0" result="BackgroundImageFix"/>
<feGaussianBlur in="BackgroundImageFix" stdDeviation="12"/>
<feComposite in2="SourceAlpha" operator="in" result="effect1_backgroundBlur_202_1973"/>
<feBlend mode="normal" in="SourceGraphic" in2="effect1_backgroundBlur_202_1973" result="shape"/>
<feColorMatrix in="SourceAlpha" type="matrix" values="0 0 0 0 0 0 0 0 0 0 0 0 0 0 0 0 0 0 127 0" result="hardAlpha"/>
<feOffset dy="8"/>
<feGaussianBlur stdDeviation="6"/>
<feComposite in2="hardAlpha" operator="arithmetic" k2="-1" k3="1"/>
<feColorMatrix type="matrix" values="0 0 0 0 1 0 0 0 0 1 0 0 0 0 1 0 0 0 0.15 0"/>
<feBlend mode="normal" in2="shape" result="effect2_innerShadow_202_1973"/>
</filter>
<filter id="filter14_bi_202_1973" x="6.252" y="24.3457" width="83.496" height="69.6549" filterUnits="userSpaceOnUse" color-interpolation-filters="sRGB">
<feFlood flood-opacity="0" result="BackgroundImageFix"/>
<feGaussianBlur in="BackgroundImageFix" stdDeviation="12"/>
<feComposite in2="SourceAlpha" operator="in" result="effect1_backgroundBlur_202_1973"/>
<feBlend mode="normal" in="SourceGraphic" in2="effect1_backgroundBlur_202_1973" result="shape"/>
<feColorMatrix in="SourceAlpha" type="matrix" values="0 0 0 0 0 0 0 0 0 0 0 0 0 0 0 0 0 0 127 0" result="hardAlpha"/>
<feOffset dy="8"/>
<feGaussianBlur stdDeviation="6"/>
<feComposite in2="hardAlpha" operator="arithmetic" k2="-1" k3="1"/>
<feColorMatrix type="matrix" values="0 0 0 0 1 0 0 0 0 1 0 0 0 0 1 0 0 0 0.15 0"/>
<feBlend mode="normal" in2="shape" result="effect2_innerShadow_202_1973"/>
</filter>
<filter id="filter15_bi_202_1973" x="6" y="35.1543" width="66" height="78.502" filterUnits="userSpaceOnUse" color-interpolation-filters="sRGB">
<feFlood flood-opacity="0" result="BackgroundImageFix"/>
<feGaussianBlur in="BackgroundImageFix" stdDeviation="12"/>
<feComposite in2="SourceAlpha" operator="in" result="effect1_backgroundBlur_202_1973"/>
<feBlend mode="normal" in="SourceGraphic" in2="effect1_backgroundBlur_202_1973" result="shape"/>
<feColorMatrix in="SourceAlpha" type="matrix" values="0 0 0 0 0 0 0 0 0 0 0 0 0 0 0 0 0 0 127 0" result="hardAlpha"/>
<feOffset dy="8"/>
<feGaussianBlur stdDeviation="6"/>
<feComposite in2="hardAlpha" operator="arithmetic" k2="-1" k3="1"/>
<feColorMatrix type="matrix" values="0 0 0 0 1 0 0 0 0 1 0 0 0 0 1 0 0 0 0.15 0"/>
<feBlend mode="normal" in2="shape" result="effect2_innerShadow_202_1973"/>
</filter>
<filter id="filter16_bi_202_1973" x="24" y="35.1543" width="66" height="78.502" filterUnits="userSpaceOnUse" color-interpolation-filters="sRGB">
<feFlood flood-opacity="0" result="BackgroundImageFix"/>
<feGaussianBlur in="BackgroundImageFix" stdDeviation="12"/>
<feComposite in2="SourceAlpha" operator="in" result="effect1_backgroundBlur_202_1973"/>
<feBlend mode="normal" in="SourceGraphic" in2="effect1_backgroundBlur_202_1973" result="shape"/>
<feColorMatrix in="SourceAlpha" type="matrix" values="0 0 0 0 0 0 0 0 0 0 0 0 0 0 0 0 0 0 127 0" result="hardAlpha"/>
<feOffset dy="8"/>
<feGaussianBlur stdDeviation="6"/>
<feComposite in2="hardAlpha" operator="arithmetic" k2="-1" k3="1"/>
<feColorMatrix type="matrix" values="0 0 0 0 1 0 0 0 0 1 0 0 0 0 1 0 0 0 0.15 0"/>
<feBlend mode="normal" in2="shape" result="effect2_innerShadow_202_1973"/>
</filter>
<linearGradient id="paint0_linear_202_1973" x1="4.69278" y1="39.0312" x2="36.487" y2="42.879" gradientUnits="userSpaceOnUse">
<stop stop-color="#8AE6CF"/>
<stop offset="1" stop-color="#7C3AE7"/>
</linearGradient>
<linearGradient id="paint1_linear_202_1973" x1="4.69278" y1="39.0312" x2="36.487" y2="42.879" gradientUnits="userSpaceOnUse">
<stop stop-color="#8AE6CF"/>
<stop offset="1" stop-color="#7C3AE7"/>
</linearGradient>
<linearGradient id="paint2_linear_202_1973" x1="4.69278" y1="39.0312" x2="36.487" y2="42.879" gradientUnits="userSpaceOnUse">
<stop stop-color="#8AE6CF"/>
<stop offset="1" stop-color="#7C3AE7"/>
</linearGradient>
<linearGradient id="paint3_linear_202_1973" x1="4.69412" y1="39.0312" x2="36.4883" y2="42.879" gradientUnits="userSpaceOnUse">
<stop stop-color="#8AE6CF"/>
<stop offset="1" stop-color="#7C3AE7"/>
</linearGradient>
<linearGradient id="paint4_linear_202_1973" x1="4.69412" y1="39.0312" x2="36.4883" y2="42.879" gradientUnits="userSpaceOnUse">
<stop stop-color="#8AE6CF"/>
<stop offset="1" stop-color="#7C3AE7"/>
</linearGradient>
<linearGradient id="paint5_linear_202_1973" x1="4.69412" y1="39.0312" x2="36.4883" y2="42.879" gradientUnits="userSpaceOnUse">
<stop stop-color="#8AE6CF"/>
<stop offset="1" stop-color="#7C3AE7"/>
</linearGradient>
<linearGradient id="paint6_linear_202_1973" x1="34.6941" y1="19.7929" x2="66.4883" y2="23.6407" gradientUnits="userSpaceOnUse">
<stop stop-color="#8AE6CF"/>
<stop offset="1" stop-color="#7C3AE7"/>
</linearGradient>
<linearGradient id="paint7_linear_202_1973" x1="34.6941" y1="19.7929" x2="66.4883" y2="23.6407" gradientUnits="userSpaceOnUse">
<stop stop-color="#8AE6CF"/>
<stop offset="1" stop-color="#7C3AE7"/>
</linearGradient>
<linearGradient id="paint8_linear_202_1973" x1="34.6941" y1="19.7929" x2="66.4883" y2="23.6407" gradientUnits="userSpaceOnUse">
<stop stop-color="#8AE6CF"/>
<stop offset="1" stop-color="#7C3AE7"/>
</linearGradient>
<linearGradient id="paint9_linear_202_1973" x1="64.6941" y1="39.0305" x2="96.4883" y2="42.8783" gradientUnits="userSpaceOnUse">
<stop stop-color="#8AE6CF"/>
<stop offset="1" stop-color="#7C3AE7"/>
</linearGradient>
<linearGradient id="paint10_linear_202_1973" x1="64.6941" y1="39.0305" x2="96.4883" y2="42.8783" gradientUnits="userSpaceOnUse">
<stop stop-color="#8AE6CF"/>
<stop offset="1" stop-color="#7C3AE7"/>
</linearGradient>
<linearGradient id="paint11_linear_202_1973" x1="64.6941" y1="39.0305" x2="96.4883" y2="42.8783" gradientUnits="userSpaceOnUse">
<stop stop-color="#8AE6CF"/>
<stop offset="1" stop-color="#7C3AE7"/>
</linearGradient>
<linearGradient id="paint12_linear_202_1973" x1="34.6934" y1="61.0947" x2="66.4876" y2="64.9425" gradientUnits="userSpaceOnUse">
<stop stop-color="#8AE6CF"/>
<stop offset="1" stop-color="#7C3AE7"/>
</linearGradient>
<linearGradient id="paint13_linear_202_1973" x1="34.6934" y1="61.0947" x2="66.4876" y2="64.9425" gradientUnits="userSpaceOnUse">
<stop stop-color="#8AE6CF"/>
<stop offset="1" stop-color="#7C3AE7"/>
</linearGradient>
<linearGradient id="paint14_linear_202_1973" x1="34.6934" y1="61.0947" x2="66.4876" y2="64.9425" gradientUnits="userSpaceOnUse">
<stop stop-color="#8AE6CF"/>
<stop offset="1" stop-color="#7C3AE7"/>
</linearGradient>
<linearGradient id="paint15_linear_202_1973" x1="31.731" y1="14.3329" x2="69.2276" y2="22.8695" gradientUnits="userSpaceOnUse">
<stop stop-color="#66FECB"/>
<stop offset="1" stop-color="#8940FF"/>
</linearGradient>
<linearGradient id="paint16_linear_202_1973" x1="31.3612" y1="10.9863" x2="65.748" y2="10.9863" gradientUnits="userSpaceOnUse">
<stop stop-color="#C8A6FF"/>
<stop offset="1" stop-color="#69CFB5"/>
</linearGradient>
<linearGradient id="paint17_linear_202_1973" x1="30.75" y1="26.911" x2="50.6165" y2="28.5392" gradientUnits="userSpaceOnUse">
<stop stop-color="#66FECB"/>
<stop offset="1" stop-color="#8940FF"/>
</linearGradient>
<linearGradient id="paint18_linear_202_1973" x1="30.5625" y1="22.197" x2="48" y2="22.197" gradientUnits="userSpaceOnUse">
<stop stop-color="#C8A6FF"/>
<stop offset="1" stop-color="#69CFB5"/>
</linearGradient>
<linearGradient id="paint19_linear_202_1973" x1="48.75" y1="26.911" x2="68.6165" y2="28.5392" gradientUnits="userSpaceOnUse">
<stop stop-color="#66FECB"/>
<stop offset="1" stop-color="#8940FF"/>
</linearGradient>
<linearGradient id="paint20_linear_202_1973" x1="48.5625" y1="22.197" x2="66" y2="22.197" gradientUnits="userSpaceOnUse">
<stop stop-color="#C8A6FF"/>
<stop offset="1" stop-color="#69CFB5"/>
</linearGradient>
<linearGradient id="paint21_linear_202_1973" x1="61.731" y1="32.7005" x2="99.2279" y2="41.2364" gradientUnits="userSpaceOnUse">
<stop stop-color="#66FECB"/>
<stop offset="1" stop-color="#8940FF"/>
</linearGradient>
<linearGradient id="paint22_linear_202_1973" x1="61.3612" y1="29.3535" x2="95.748" y2="29.3535" gradientUnits="userSpaceOnUse">
<stop stop-color="#C8A6FF"/>
<stop offset="1" stop-color="#69CFB5"/>
</linearGradient>
<linearGradient id="paint23_linear_202_1973" x1="60.75" y1="45.2805" x2="80.6166" y2="46.9087" gradientUnits="userSpaceOnUse">
<stop stop-color="#66FECB"/>
<stop offset="1" stop-color="#8940FF"/>
</linearGradient>
<linearGradient id="paint24_linear_202_1973" x1="60.5625" y1="40.5662" x2="78" y2="40.5662" gradientUnits="userSpaceOnUse">
<stop stop-color="#C8A6FF"/>
<stop offset="1" stop-color="#69CFB5"/>
</linearGradient>
<linearGradient id="paint25_linear_202_1973" x1="78.75" y1="45.2805" x2="98.6166" y2="46.9087" gradientUnits="userSpaceOnUse">
<stop stop-color="#66FECB"/>
<stop offset="1" stop-color="#8940FF"/>
</linearGradient>
<linearGradient id="paint26_linear_202_1973" x1="78.5625" y1="40.5662" x2="96" y2="40.5662" gradientUnits="userSpaceOnUse">
<stop stop-color="#C8A6FF"/>
<stop offset="1" stop-color="#69CFB5"/>
</linearGradient>
<linearGradient id="paint27_linear_202_1973" x1="1.73101" y1="32.7005" x2="39.2279" y2="41.2364" gradientUnits="userSpaceOnUse">
<stop stop-color="#66FECB"/>
<stop offset="1" stop-color="#8940FF"/>
</linearGradient>
<linearGradient id="paint28_linear_202_1973" x1="1.36126" y1="29.3535" x2="35.748" y2="29.3535" gradientUnits="userSpaceOnUse">
<stop stop-color="#C8A6FF"/>
<stop offset="1" stop-color="#69CFB5"/>
</linearGradient>
<linearGradient id="paint29_linear_202_1973" x1="0.75" y1="45.2805" x2="20.6166" y2="46.9087" gradientUnits="userSpaceOnUse">
<stop stop-color="#66FECB"/>
<stop offset="1" stop-color="#8940FF"/>
</linearGradient>
<linearGradient id="paint30_linear_202_1973" x1="0.5625" y1="40.5662" x2="18" y2="40.5662" gradientUnits="userSpaceOnUse">
<stop stop-color="#C8A6FF"/>
<stop offset="1" stop-color="#69CFB5"/>
</linearGradient>
<linearGradient id="paint31_linear_202_1973" x1="18.75" y1="45.2805" x2="38.6166" y2="46.9087" gradientUnits="userSpaceOnUse">
<stop stop-color="#66FECB"/>
<stop offset="1" stop-color="#8940FF"/>
</linearGradient>
<linearGradient id="paint32_linear_202_1973" x1="18.5625" y1="40.5662" x2="36" y2="40.5662" gradientUnits="userSpaceOnUse">
<stop stop-color="#C8A6FF"/>
<stop offset="1" stop-color="#69CFB5"/>
</linearGradient>
<linearGradient id="paint33_linear_202_1973" x1="31.731" y1="52.6767" x2="69.2276" y2="61.2132" gradientUnits="userSpaceOnUse">
<stop stop-color="#66FECB"/>
<stop offset="1" stop-color="#8940FF"/>
</linearGradient>
<linearGradient id="paint34_linear_202_1973" x1="31.3612" y1="49.33" x2="65.748" y2="49.33" gradientUnits="userSpaceOnUse">
<stop stop-color="#C8A6FF"/>
<stop offset="1" stop-color="#69CFB5"/>
</linearGradient>
<linearGradient id="paint35_linear_202_1973" x1="30.75" y1="65.2547" x2="50.6165" y2="66.883" gradientUnits="userSpaceOnUse">
<stop stop-color="#66FECB"/>
<stop offset="1" stop-color="#8940FF"/>
</linearGradient>
<linearGradient id="paint36_linear_202_1973" x1="30.5625" y1="60.5408" x2="48" y2="60.5408" gradientUnits="userSpaceOnUse">
<stop stop-color="#C8A6FF"/>
<stop offset="1" stop-color="#69CFB5"/>
</linearGradient>
<linearGradient id="paint37_linear_202_1973" x1="48.75" y1="65.2547" x2="68.6165" y2="66.883" gradientUnits="userSpaceOnUse">
<stop stop-color="#66FECB"/>
<stop offset="1" stop-color="#8940FF"/>
</linearGradient>
<linearGradient id="paint38_linear_202_1973" x1="48.5625" y1="60.5408" x2="66" y2="60.5408" gradientUnits="userSpaceOnUse">
<stop stop-color="#C8A6FF"/>
<stop offset="1" stop-color="#69CFB5"/>
</linearGradient>
</defs>
</svg>
