<svg width="100%" height="100%" viewBox="0 0 96 96" fill="none" xmlns="http://www.w3.org/2000/svg">
<g clip-path="url(#clip0_202_2010)">
<path opacity="0.3" d="M77.2204 68.8939C86.4397 68.8939 93.9133 53.9467 93.9133 35.5082C93.9133 17.0698 86.4397 2.12256 77.2204 2.12256C68.0012 2.12256 60.5276 17.0698 60.5276 35.5082C60.5276 53.9467 68.0012 68.8939 77.2204 68.8939Z" fill="url(#paint0_linear_202_2010)"/>
<path d="M36.2757 48.2922L12.7793 39.9644L33.1753 90.2028C35.1312 94.952 40.5657 97.2172 45.3126 95.2613C50.0071 93.3293 52.2841 87.9875 50.4282 83.2621L36.2757 48.2922Z" fill="url(#paint1_linear_202_2010)"/>
<path d="M81.3937 35.5078C81.3937 24.4621 72.4394 15.5078 61.3937 15.5078C59.1108 15.5078 56.928 15.9078 54.8823 16.6135C53.5708 22.3792 52.8223 28.7621 52.8223 35.5078C52.8223 42.2535 53.5708 48.6392 54.8823 54.4021C56.9251 55.105 59.1108 55.5078 61.3937 55.5078C72.4394 55.5078 81.3937 46.5535 81.3937 35.5078Z" fill="url(#paint2_linear_202_2010)"/>
<g filter="url(#filter0_bi_202_2010)">
<path d="M77.2206 0.0361328C75.8163 0.167589 74.4287 0.447194 73.0828 0.870775L10.6454 21.5699C3.69489 23.8234 0.0162037 28.6435 0.0162037 35.4208C-0.303036 42.1814 4.12473 48.2513 10.6579 50.0145L73.2143 70.1857C74.4871 70.7032 75.8476 70.9724 77.2206 70.9807C87.7517 70.9807 96 55.4 96 35.5084C96 15.6168 87.7558 0.0361328 77.2206 0.0361328ZM77.2206 66.8075C69.304 66.8075 62.6143 52.4746 62.6143 35.5084C62.6143 18.5422 69.3082 4.20934 77.2206 4.20934C85.133 4.20934 91.8268 18.5422 91.8268 35.5084C91.8268 52.4746 85.1497 66.8075 77.2206 66.8075Z" fill="#1D1D1D" fill-opacity="0.05"/>
<path d="M77.2206 0.0361328C75.8163 0.167589 74.4287 0.447194 73.0828 0.870775L10.6454 21.5699C3.69489 23.8234 0.0162037 28.6435 0.0162037 35.4208C-0.303036 42.1814 4.12473 48.2513 10.6579 50.0145L73.2143 70.1857C74.4871 70.7032 75.8476 70.9724 77.2206 70.9807C87.7517 70.9807 96 55.4 96 35.5084C96 15.6168 87.7558 0.0361328 77.2206 0.0361328ZM77.2206 66.8075C69.304 66.8075 62.6143 52.4746 62.6143 35.5084C62.6143 18.5422 69.3082 4.20934 77.2206 4.20934C85.133 4.20934 91.8268 18.5422 91.8268 35.5084C91.8268 52.4746 85.1497 66.8075 77.2206 66.8075Z" fill="url(#paint3_linear_202_2010)" fill-opacity="0.2"/>
<path d="M10.8304 22.1407L10.8342 22.1394L73.2629 1.4431C73.2644 1.44266 73.2658 1.44221 73.2672 1.44177C74.5622 1.0345 75.8972 0.764637 77.2484 0.636172C82.1793 0.649891 86.7034 4.30763 90.0307 10.5936C93.3532 16.8704 95.4 25.6373 95.4 35.5084C95.4 45.3795 93.3521 54.1464 90.0292 60.4232C86.6955 66.7201 82.1616 70.3795 77.2229 70.3807C75.9263 70.3727 74.6418 70.1184 73.4403 69.6299L73.4196 69.6215L73.3984 69.6147L10.842 49.4434L10.8282 49.439L10.8142 49.4352C4.55296 47.7454 0.309589 41.9282 0.615536 35.4491L0.616204 35.4349V35.4208C0.616204 32.145 1.50326 29.3788 3.2006 27.1639C4.90019 24.946 7.44508 23.2383 10.8304 22.1407ZM62.0143 35.5084C62.0143 44.0624 63.6994 51.9766 66.405 57.774C67.7575 60.6721 69.3767 63.0662 71.1913 64.7435C73.008 66.4228 75.0492 67.4075 77.2206 67.4075C79.3948 67.4075 81.4376 66.423 83.2551 64.7435C85.0703 63.0662 86.6891 60.672 88.0409 57.7739C90.7449 51.9764 92.4268 44.0622 92.4268 35.5084C92.4268 26.9544 90.7406 19.0402 88.0345 13.2428C86.6817 10.3447 85.0624 7.95067 83.2481 6.27338C81.4316 4.59405 79.3909 3.60934 77.2206 3.60934C75.0502 3.60934 73.0095 4.59405 71.193 6.27338C69.3787 7.95067 67.7594 10.3447 66.4066 13.2428C63.7005 19.0402 62.0143 26.9544 62.0143 35.5084Z" stroke="url(#paint4_linear_202_2010)" stroke-opacity="0.1" stroke-width="1.2"/>
</g>
</g>
<defs>
<filter id="filter0_bi_202_2010" x="-24" y="-23.9639" width="144" height="118.945" filterUnits="userSpaceOnUse" color-interpolation-filters="sRGB">
<feFlood flood-opacity="0" result="BackgroundImageFix"/>
<feGaussianBlur in="BackgroundImageFix" stdDeviation="12"/>
<feComposite in2="SourceAlpha" operator="in" result="effect1_backgroundBlur_202_2010"/>
<feBlend mode="normal" in="SourceGraphic" in2="effect1_backgroundBlur_202_2010" result="shape"/>
<feColorMatrix in="SourceAlpha" type="matrix" values="0 0 0 0 0 0 0 0 0 0 0 0 0 0 0 0 0 0 127 0" result="hardAlpha"/>
<feOffset dy="8"/>
<feGaussianBlur stdDeviation="6"/>
<feComposite in2="hardAlpha" operator="arithmetic" k2="-1" k3="1"/>
<feColorMatrix type="matrix" values="0 0 0 0 1 0 0 0 0 1 0 0 0 0 1 0 0 0 0.15 0"/>
<feBlend mode="normal" in2="shape" result="effect2_innerShadow_202_2010"/>
</filter>
<linearGradient id="paint0_linear_202_2010" x1="61.9187" y1="15.4768" x2="98.8358" y2="18.0405" gradientUnits="userSpaceOnUse">
<stop stop-color="#8AE6CF"/>
<stop offset="1" stop-color="#7C3AE7"/>
</linearGradient>
<linearGradient id="paint1_linear_202_2010" x1="14.3749" y1="51.1644" x2="56.5444" y2="55.1695" gradientUnits="userSpaceOnUse">
<stop stop-color="#8AE6CF"/>
<stop offset="1" stop-color="#7C3AE7"/>
</linearGradient>
<linearGradient id="paint2_linear_202_2010" x1="54.0127" y1="23.5078" x2="85.4494" y2="26.6265" gradientUnits="userSpaceOnUse">
<stop stop-color="#8AE6CF"/>
<stop offset="1" stop-color="#7C3AE7"/>
</linearGradient>
<linearGradient id="paint3_linear_202_2010" x1="4" y1="14.2251" x2="107.028" y2="33.5881" gradientUnits="userSpaceOnUse">
<stop stop-color="#66FECB"/>
<stop offset="1" stop-color="#8940FF"/>
</linearGradient>
<linearGradient id="paint4_linear_202_2010" x1="3" y1="3.26089" x2="96" y2="3.26089" gradientUnits="userSpaceOnUse">
<stop stop-color="#C8A6FF"/>
<stop offset="1" stop-color="#69CFB5"/>
</linearGradient>
<clipPath id="clip0_202_2010">
<rect width="96" height="96" fill="white"/>
</clipPath>
</defs>
</svg>
