<svg width="100%" height="100%" viewBox="0 0 96 96" fill="none" xmlns="http://www.w3.org/2000/svg">
<g clip-path="url(#clip0_202_2193)">
<g filter="url(#filter0_bi_202_2193)">
<path d="M50.0632 19.6964C49.8549 19.3172 49.5507 18.9993 49.1812 18.7743L29.1917 6.5583C28.7996 6.31899 28.3492 6.19238 27.8898 6.19238C27.4305 6.19238 26.9801 6.31899 26.588 6.5583L6.59854 18.7743C6.22896 18.9993 5.92483 19.3172 5.71651 19.6964L27.8898 33.2492L50.0632 19.6964Z" fill="url(#paint0_linear_202_2193)"/>
<path d="M5.71651 19.6964C5.51041 20.067 5.39969 20.4862 5.39929 20.9103V43.0936C5.39953 43.5216 5.50972 43.9424 5.7193 44.3156C5.92888 44.6888 6.23081 45.0019 6.59616 45.225L26.5857 57.441C26.9776 57.6808 27.428 57.8079 27.8875 57.8083L27.8898 33.2492L5.71651 19.6964Z" fill="url(#paint1_linear_202_2193)"/>
<path d="M50.0632 19.6964C50.2693 20.067 50.3752 20.4862 50.3756 20.9103V43.0936C50.3754 43.5216 50.2652 43.9424 50.0556 44.3156C49.8461 44.6888 49.5441 45.0019 49.1788 45.225L29.1893 57.441C28.7974 57.6808 28.3469 57.8079 27.8875 57.8083L27.8898 33.2492L50.0632 19.6964Z" fill="url(#paint2_linear_202_2193)"/>
</g>
<g filter="url(#filter1_bi_202_2193)">
<path d="M50.0632 19.6964C49.8549 19.3172 49.5507 18.9993 49.1812 18.7743L29.1917 6.5583C28.7996 6.31899 28.3492 6.19238 27.8898 6.19238C27.4305 6.19238 26.9801 6.31899 26.588 6.5583L6.59854 18.7743C6.22896 18.9993 5.92483 19.3172 5.71651 19.6964L27.8898 33.2492L50.0632 19.6964Z" fill="url(#paint3_linear_202_2193)"/>
<path d="M5.71651 19.6964C5.51041 20.067 5.39969 20.4862 5.39929 20.9103V43.0936C5.39953 43.5216 5.50972 43.9424 5.7193 44.3156C5.92888 44.6888 6.23081 45.0019 6.59616 45.225L26.5857 57.441C26.9776 57.6808 27.428 57.8079 27.8875 57.8083L27.8898 33.2492L5.71651 19.6964Z" fill="url(#paint4_linear_202_2193)"/>
<path d="M50.0632 19.6964C50.2693 20.067 50.3752 20.4862 50.3756 20.9103V43.0936C50.3754 43.5216 50.2652 43.9424 50.0556 44.3156C49.8461 44.6888 49.5441 45.0019 49.1788 45.225L29.1893 57.441C28.7974 57.6808 28.3469 57.8079 27.8875 57.8083L27.8898 33.2492L50.0632 19.6964Z" fill="url(#paint5_linear_202_2193)"/>
</g>
<g filter="url(#filter2_bi_202_2193)">
<path d="M55.3826 16.744C55.1243 16.2739 54.7472 15.8797 54.2889 15.6008L29.5034 0.45371C29.0173 0.156986 28.4588 0 27.8892 0C27.3197 0 26.7612 0.156986 26.2751 0.45371L1.48951 15.6008C1.03125 15.8797 0.654151 16.2739 0.395844 16.744L27.8892 33.5486L55.3826 16.744Z" fill="#1D1D1D" fill-opacity="0.05"/>
<path d="M55.3826 16.744C55.1243 16.2739 54.7472 15.8797 54.2889 15.6008L29.5034 0.45371C29.0173 0.156986 28.4588 0 27.8892 0C27.3197 0 26.7612 0.156986 26.2751 0.45371L1.48951 15.6008C1.03125 15.8797 0.654151 16.2739 0.395844 16.744L27.8892 33.5486L55.3826 16.744Z" fill="url(#paint6_linear_202_2193)" fill-opacity="0.2"/>
<path d="M1.25452 16.5657L27.8892 32.8454L54.5239 16.5657C54.365 16.39 54.181 16.2375 53.977 16.1133L53.9761 16.1127L29.1908 0.965844L1.25452 16.5657ZM1.25452 16.5657C1.41341 16.39 1.59742 16.2375 1.80143 16.1133L1.80238 16.1127L26.5877 0.965844L1.25452 16.5657ZM27.8892 0.6C28.3483 0.6 28.7986 0.726525 29.1905 0.965676L26.5879 0.965676C26.9799 0.726525 27.4301 0.6 27.8892 0.6Z" stroke="url(#paint7_linear_202_2193)" stroke-opacity="0.1" stroke-width="1.2"/>
</g>
<g filter="url(#filter3_bi_202_2193)">
<path d="M0.390373 16.7461C0.134829 17.2057 0.000487337 17.7228 0 18.2487L0 45.7545C0.000295495 46.2852 0.136923 46.807 0.396785 47.2697C0.656646 47.7325 1.03103 48.1207 1.48404 48.3973L26.2696 63.5443C26.7555 63.8417 27.3141 63.9992 27.8838 63.9998V33.5507L0.390373 16.7461Z" fill="#1D1D1D" fill-opacity="0.05"/>
<path d="M0.390373 16.7461C0.134829 17.2057 0.000487337 17.7228 0 18.2487L0 45.7545C0.000295495 46.2852 0.136923 46.807 0.396785 47.2697C0.656646 47.7325 1.03103 48.1207 1.48404 48.3973L26.2696 63.5443C26.7555 63.8417 27.3141 63.9992 27.8838 63.9998V33.5507L0.390373 16.7461Z" fill="url(#paint8_linear_202_2193)" fill-opacity="0.2"/>
<path d="M0.6 18.249C0.600216 18.038 0.627161 17.8287 0.679578 17.6261L27.2838 33.8872V63.3259C27.0376 63.2647 26.8011 63.1661 26.5827 63.0325L26.5825 63.0324L1.79691 47.8853L1.79664 47.8851C1.43136 47.6622 1.12948 47.3491 0.919943 46.976C0.710461 46.6029 0.600295 46.1823 0.6 45.7545V18.249Z" stroke="url(#paint9_linear_202_2193)" stroke-opacity="0.1" stroke-width="1.2"/>
</g>
<g filter="url(#filter4_bi_202_2193)">
<path d="M55.3753 16.7461C55.6309 17.2057 55.7652 17.7228 55.7657 18.2487V45.7545C55.7654 46.2852 55.6288 46.807 55.3689 47.2697C55.1091 47.7325 54.7347 48.1207 54.2817 48.3973L29.4961 63.5443C29.0102 63.8417 28.4516 63.9992 27.8819 63.9998V33.5507L55.3753 16.7461Z" fill="#1D1D1D" fill-opacity="0.05"/>
<path d="M55.3753 16.7461C55.6309 17.2057 55.7652 17.7228 55.7657 18.2487V45.7545C55.7654 46.2852 55.6288 46.807 55.3689 47.2697C55.1091 47.7325 54.7347 48.1207 54.2817 48.3973L29.4961 63.5443C29.0102 63.8417 28.4516 63.9992 27.8819 63.9998V33.5507L55.3753 16.7461Z" fill="url(#paint10_linear_202_2193)" fill-opacity="0.2"/>
<path d="M53.9691 47.8851L53.9688 47.8853L29.1832 63.0324L29.183 63.0325C28.9646 63.1661 28.7281 63.2647 28.4819 63.3259V33.8872L55.0861 17.6261C55.1386 17.8288 55.1655 18.0382 55.1657 18.2493V45.7542C55.1655 46.1821 55.0553 46.6028 54.8458 46.976C54.6362 47.3491 54.3343 47.6622 53.9691 47.8851Z" stroke="url(#paint11_linear_202_2193)" stroke-opacity="0.1" stroke-width="1.2"/>
</g>
<path d="M77.2167 16.6954H65.559L74.5183 7.73611L71.5673 4.78516L59.0456 17.3069C58.2296 18.1229 58.2296 19.4419 59.0456 20.2579L71.5673 32.7796L74.5183 29.8286L65.559 20.8693H77.2167C82.9705 20.8693 87.6515 25.5504 87.6515 31.3041H91.8254C91.8254 23.2485 85.2703 16.6954 77.2167 16.6954Z" fill="url(#paint12_linear_202_2193)"/>
<path d="M24.4339 63.2207L21.4829 66.1717L30.4422 75.131H18.7845C13.0307 75.131 8.34969 70.4499 8.34969 64.6962H4.17578C4.17578 72.7518 10.7309 79.3049 18.7845 79.3049H30.4422L21.4829 88.2642L24.4339 91.2151L36.9556 78.6934C37.7716 77.8774 37.7716 76.5584 36.9556 75.7424L24.4339 63.2207Z" fill="url(#paint13_linear_202_2193)"/>
<path d="M68 88C79.0457 88 88 79.0457 88 68C88 56.9543 79.0457 48 68 48C56.9543 48 48 56.9543 48 68C48 79.0457 56.9543 88 68 88Z" fill="url(#paint14_linear_202_2193)"/>
<g filter="url(#filter5_bi_202_2193)">
<path d="M68 96C83.464 96 96 83.464 96 68C96 52.536 83.464 40 68 40C52.536 40 40 52.536 40 68C40 83.464 52.536 96 68 96Z" fill="#1D1D1D" fill-opacity="0.05"/>
<path d="M68 96C83.464 96 96 83.464 96 68C96 52.536 83.464 40 68 40C52.536 40 40 52.536 40 68C40 83.464 52.536 96 68 96Z" fill="url(#paint15_linear_202_2193)" fill-opacity="0.2"/>
<path d="M95.4 68C95.4 83.1326 83.1326 95.4 68 95.4C52.8674 95.4 40.6 83.1326 40.6 68C40.6 52.8674 52.8674 40.6 68 40.6C83.1326 40.6 95.4 52.8674 95.4 68Z" stroke="url(#paint16_linear_202_2193)" stroke-opacity="0.1" stroke-width="1.2"/>
</g>
</g>
<defs>
<filter id="filter0_bi_202_2193" x="-4.27867" y="-3.48557" width="64.3323" height="70.9719" filterUnits="userSpaceOnUse" color-interpolation-filters="sRGB">
<feFlood flood-opacity="0" result="BackgroundImageFix"/>
<feGaussianBlur in="BackgroundImageFix" stdDeviation="4.83898"/>
<feComposite in2="SourceAlpha" operator="in" result="effect1_backgroundBlur_202_2193"/>
<feBlend mode="normal" in="SourceGraphic" in2="effect1_backgroundBlur_202_2193" result="shape"/>
<feColorMatrix in="SourceAlpha" type="matrix" values="0 0 0 0 0 0 0 0 0 0 0 0 0 0 0 0 0 0 127 0" result="hardAlpha"/>
<feOffset dy="1.61299"/>
<feGaussianBlur stdDeviation="3.22599"/>
<feComposite in2="hardAlpha" operator="arithmetic" k2="-1" k3="1"/>
<feColorMatrix type="matrix" values="0 0 0 0 1 0 0 0 0 1 0 0 0 0 1 0 0 0 0.4 0"/>
<feBlend mode="normal" in2="shape" result="effect2_innerShadow_202_2193"/>
</filter>
<filter id="filter1_bi_202_2193" x="-4.27867" y="-3.48557" width="64.3323" height="70.9719" filterUnits="userSpaceOnUse" color-interpolation-filters="sRGB">
<feFlood flood-opacity="0" result="BackgroundImageFix"/>
<feGaussianBlur in="BackgroundImageFix" stdDeviation="4.83898"/>
<feComposite in2="SourceAlpha" operator="in" result="effect1_backgroundBlur_202_2193"/>
<feBlend mode="normal" in="SourceGraphic" in2="effect1_backgroundBlur_202_2193" result="shape"/>
<feColorMatrix in="SourceAlpha" type="matrix" values="0 0 0 0 0 0 0 0 0 0 0 0 0 0 0 0 0 0 127 0" result="hardAlpha"/>
<feOffset dy="1.61299"/>
<feGaussianBlur stdDeviation="3.22599"/>
<feComposite in2="hardAlpha" operator="arithmetic" k2="-1" k3="1"/>
<feColorMatrix type="matrix" values="0 0 0 0 1 0 0 0 0 1 0 0 0 0 1 0 0 0 0.4 0"/>
<feBlend mode="normal" in2="shape" result="effect2_innerShadow_202_2193"/>
</filter>
<filter id="filter2_bi_202_2193" x="-23.6042" y="-24" width="102.987" height="81.5486" filterUnits="userSpaceOnUse" color-interpolation-filters="sRGB">
<feFlood flood-opacity="0" result="BackgroundImageFix"/>
<feGaussianBlur in="BackgroundImageFix" stdDeviation="12"/>
<feComposite in2="SourceAlpha" operator="in" result="effect1_backgroundBlur_202_2193"/>
<feBlend mode="normal" in="SourceGraphic" in2="effect1_backgroundBlur_202_2193" result="shape"/>
<feColorMatrix in="SourceAlpha" type="matrix" values="0 0 0 0 0 0 0 0 0 0 0 0 0 0 0 0 0 0 127 0" result="hardAlpha"/>
<feOffset dy="8"/>
<feGaussianBlur stdDeviation="6"/>
<feComposite in2="hardAlpha" operator="arithmetic" k2="-1" k3="1"/>
<feColorMatrix type="matrix" values="0 0 0 0 1 0 0 0 0 1 0 0 0 0 1 0 0 0 0.15 0"/>
<feBlend mode="normal" in2="shape" result="effect2_innerShadow_202_2193"/>
</filter>
<filter id="filter3_bi_202_2193" x="-24" y="-7.25391" width="75.8838" height="95.2537" filterUnits="userSpaceOnUse" color-interpolation-filters="sRGB">
<feFlood flood-opacity="0" result="BackgroundImageFix"/>
<feGaussianBlur in="BackgroundImageFix" stdDeviation="12"/>
<feComposite in2="SourceAlpha" operator="in" result="effect1_backgroundBlur_202_2193"/>
<feBlend mode="normal" in="SourceGraphic" in2="effect1_backgroundBlur_202_2193" result="shape"/>
<feColorMatrix in="SourceAlpha" type="matrix" values="0 0 0 0 0 0 0 0 0 0 0 0 0 0 0 0 0 0 127 0" result="hardAlpha"/>
<feOffset dy="8"/>
<feGaussianBlur stdDeviation="6"/>
<feComposite in2="hardAlpha" operator="arithmetic" k2="-1" k3="1"/>
<feColorMatrix type="matrix" values="0 0 0 0 1 0 0 0 0 1 0 0 0 0 1 0 0 0 0.15 0"/>
<feBlend mode="normal" in2="shape" result="effect2_innerShadow_202_2193"/>
</filter>
<filter id="filter4_bi_202_2193" x="3.88194" y="-7.25391" width="75.8838" height="95.2537" filterUnits="userSpaceOnUse" color-interpolation-filters="sRGB">
<feFlood flood-opacity="0" result="BackgroundImageFix"/>
<feGaussianBlur in="BackgroundImageFix" stdDeviation="12"/>
<feComposite in2="SourceAlpha" operator="in" result="effect1_backgroundBlur_202_2193"/>
<feBlend mode="normal" in="SourceGraphic" in2="effect1_backgroundBlur_202_2193" result="shape"/>
<feColorMatrix in="SourceAlpha" type="matrix" values="0 0 0 0 0 0 0 0 0 0 0 0 0 0 0 0 0 0 127 0" result="hardAlpha"/>
<feOffset dy="8"/>
<feGaussianBlur stdDeviation="6"/>
<feComposite in2="hardAlpha" operator="arithmetic" k2="-1" k3="1"/>
<feColorMatrix type="matrix" values="0 0 0 0 1 0 0 0 0 1 0 0 0 0 1 0 0 0 0.15 0"/>
<feBlend mode="normal" in2="shape" result="effect2_innerShadow_202_2193"/>
</filter>
<filter id="filter5_bi_202_2193" x="16" y="16" width="104" height="104" filterUnits="userSpaceOnUse" color-interpolation-filters="sRGB">
<feFlood flood-opacity="0" result="BackgroundImageFix"/>
<feGaussianBlur in="BackgroundImageFix" stdDeviation="12"/>
<feComposite in2="SourceAlpha" operator="in" result="effect1_backgroundBlur_202_2193"/>
<feBlend mode="normal" in="SourceGraphic" in2="effect1_backgroundBlur_202_2193" result="shape"/>
<feColorMatrix in="SourceAlpha" type="matrix" values="0 0 0 0 0 0 0 0 0 0 0 0 0 0 0 0 0 0 127 0" result="hardAlpha"/>
<feOffset dy="8"/>
<feGaussianBlur stdDeviation="6"/>
<feComposite in2="hardAlpha" operator="arithmetic" k2="-1" k3="1"/>
<feColorMatrix type="matrix" values="0 0 0 0 1 0 0 0 0 1 0 0 0 0 1 0 0 0 0.15 0"/>
<feBlend mode="normal" in2="shape" result="effect2_innerShadow_202_2193"/>
</filter>
<linearGradient id="paint0_linear_202_2193" x1="7.27331" y1="16.5156" x2="56.5257" y2="22.4762" gradientUnits="userSpaceOnUse">
<stop stop-color="#8AE6CF"/>
<stop offset="1" stop-color="#7C3AE7"/>
</linearGradient>
<linearGradient id="paint1_linear_202_2193" x1="7.27331" y1="16.5156" x2="56.5257" y2="22.4762" gradientUnits="userSpaceOnUse">
<stop stop-color="#8AE6CF"/>
<stop offset="1" stop-color="#7C3AE7"/>
</linearGradient>
<linearGradient id="paint2_linear_202_2193" x1="7.27331" y1="16.5156" x2="56.5257" y2="22.4762" gradientUnits="userSpaceOnUse">
<stop stop-color="#8AE6CF"/>
<stop offset="1" stop-color="#7C3AE7"/>
</linearGradient>
<linearGradient id="paint3_linear_202_2193" x1="7.27331" y1="16.5156" x2="56.5257" y2="22.4762" gradientUnits="userSpaceOnUse">
<stop stop-color="#8AE6CF"/>
<stop offset="1" stop-color="#7C3AE7"/>
</linearGradient>
<linearGradient id="paint4_linear_202_2193" x1="7.27331" y1="16.5156" x2="56.5257" y2="22.4762" gradientUnits="userSpaceOnUse">
<stop stop-color="#8AE6CF"/>
<stop offset="1" stop-color="#7C3AE7"/>
</linearGradient>
<linearGradient id="paint5_linear_202_2193" x1="7.27331" y1="16.5156" x2="56.5257" y2="22.4762" gradientUnits="userSpaceOnUse">
<stop stop-color="#8AE6CF"/>
<stop offset="1" stop-color="#7C3AE7"/>
</linearGradient>
<linearGradient id="paint6_linear_202_2193" x1="2.68696" y1="6.70973" x2="60.7733" y2="19.9326" gradientUnits="userSpaceOnUse">
<stop stop-color="#66FECB"/>
<stop offset="1" stop-color="#8940FF"/>
</linearGradient>
<linearGradient id="paint7_linear_202_2193" x1="2.11418" y1="1.52494" x2="55.3826" y2="1.52494" gradientUnits="userSpaceOnUse">
<stop stop-color="#C8A6FF"/>
<stop offset="1" stop-color="#69CFB5"/>
</linearGradient>
<linearGradient id="paint8_linear_202_2193" x1="1.16182" y1="26.1968" x2="31.9371" y2="28.7191" gradientUnits="userSpaceOnUse">
<stop stop-color="#66FECB"/>
<stop offset="1" stop-color="#8940FF"/>
</linearGradient>
<linearGradient id="paint9_linear_202_2193" x1="0.871367" y1="18.894" x2="27.8838" y2="18.894" gradientUnits="userSpaceOnUse">
<stop stop-color="#C8A6FF"/>
<stop offset="1" stop-color="#69CFB5"/>
</linearGradient>
<linearGradient id="paint10_linear_202_2193" x1="29.0438" y1="26.1968" x2="59.819" y2="28.7191" gradientUnits="userSpaceOnUse">
<stop stop-color="#66FECB"/>
<stop offset="1" stop-color="#8940FF"/>
</linearGradient>
<linearGradient id="paint11_linear_202_2193" x1="28.7533" y1="18.894" x2="55.7657" y2="18.894" gradientUnits="userSpaceOnUse">
<stop stop-color="#C8A6FF"/>
<stop offset="1" stop-color="#69CFB5"/>
</linearGradient>
<linearGradient id="paint12_linear_202_2193" x1="59.8249" y1="10.384" x2="95.9359" y2="16.3664" gradientUnits="userSpaceOnUse">
<stop stop-color="#8AE6CF"/>
<stop offset="1" stop-color="#7C3AE7"/>
</linearGradient>
<linearGradient id="paint13_linear_202_2193" x1="5.56711" y1="68.8196" x2="41.6781" y2="74.802" gradientUnits="userSpaceOnUse">
<stop stop-color="#8AE6CF"/>
<stop offset="1" stop-color="#7C3AE7"/>
</linearGradient>
<linearGradient id="paint14_linear_202_2193" x1="49.6667" y1="56" x2="93.27" y2="62.056" gradientUnits="userSpaceOnUse">
<stop stop-color="#8AE6CF"/>
<stop offset="1" stop-color="#7C3AE7"/>
</linearGradient>
<linearGradient id="paint15_linear_202_2193" x1="42.3333" y1="51.2" x2="103.378" y2="59.6784" gradientUnits="userSpaceOnUse">
<stop stop-color="#66FECB"/>
<stop offset="1" stop-color="#8940FF"/>
</linearGradient>
<linearGradient id="paint16_linear_202_2193" x1="41.75" y1="42.5455" x2="96" y2="42.5455" gradientUnits="userSpaceOnUse">
<stop stop-color="#C8A6FF"/>
<stop offset="1" stop-color="#69CFB5"/>
</linearGradient>
<clipPath id="clip0_202_2193">
<rect width="96" height="96" fill="white"/>
</clipPath>
</defs>
</svg>
