<svg width="1980" height="1200" viewBox="0 0 1980 1200" fill="none" xmlns="http://www.w3.org/2000/svg">
<path d="M1980 101.797L1925 121.418C1870 141.408 1760 180.097 1650 195.113C1540 209.575 1430 200.363 1320 165.635C1210 131.275 1100 72.3188 990 37.9587C880 3.23007 770 -5.98176 660 3.50642C550 13.3631 440 42.841 330 47.7232C220 52.974 110 32.7079 55 23.2197L0 13.3631V249.186H55C110 249.186 220 249.186 330 249.186C440 249.186 550 249.186 660 249.186C770 249.186 880 249.186 990 249.186C1100 249.186 1210 249.186 1320 249.186C1430 249.186 1540 249.186 1650 249.186C1760 249.186 1870 249.186 1925 249.186H1980V101.797Z" fill="currentColor"/>
<path d="M0 246.877H1980V969.085H0V246.877Z" fill="currentColor"/>
<path d="M1980 1111.57L1925 1091.95C1870 1071.96 1760 1033.27 1650 1037.87C1540 1042.48 1430 1092.22 1320 1111.57C1210 1130.91 1100 1121.7 990 1101.71C880 1082.09 770 1052.61 660 1067.35C550 1082.09 440 1141.04 330 1170.52C220 1200 110 1200 55 1200H0V964.177H55C110 964.177 220 964.177 330 964.177C440 964.177 550 964.177 660 964.177C770 964.177 880 964.177 990 964.177C1100 964.177 1210 964.177 1320 964.177C1430 964.177 1540 964.177 1650 964.177C1760 964.177 1870 964.177 1925 964.177H1980V1111.57Z" fill="currentColor"/>
</svg>
