<svg width="1980" height="900" viewBox="0 0 1980 900" fill="none" xmlns="http://www.w3.org/2000/svg">
<path d="M1980 76.3475L1925 91.0634C1870 106.056 1760 135.073 1650 146.334C1540 157.181 1430 150.272 1320 124.226C1210 98.4559 1100 54.2391 990 28.469C880 2.42255 770 -4.48632 660 2.62982C550 10.0223 440 32.1307 330 35.7924C220 39.7305 110 24.531 55 17.4148L0 10.0223V186.89H55C110 186.89 220 186.89 330 186.89C440 186.89 550 186.89 660 186.89C770 186.89 880 186.89 990 186.89C1100 186.89 1210 186.89 1320 186.89C1430 186.89 1540 186.89 1650 186.89C1760 186.89 1870 186.89 1925 186.89H1980V76.3475Z" fill="currentColor"/>
<path d="M0 185.158H1980V726.814H0V185.158Z" fill="currentColor"/>
<path d="M1980 833.675L1925 818.959C1870 803.967 1760 774.949 1650 778.404C1540 781.858 1430 819.166 1320 833.675C1210 848.183 1100 841.275 990 826.282C880 811.566 770 789.458 660 800.512C550 811.566 440 855.783 330 877.892C220 900 110 900 55 900H0V723.133H55C110 723.133 220 723.133 330 723.133C440 723.133 550 723.133 660 723.133C770 723.133 880 723.133 990 723.133C1100 723.133 1210 723.133 1320 723.133C1430 723.133 1540 723.133 1650 723.133C1760 723.133 1870 723.133 1925 723.133H1980V833.675Z" fill="currentColor"/>
</svg>
