<svg width="1440" height="409" viewBox="0 0 1440 409" fill="none" xmlns="http://www.w3.org/2000/svg">
<path d="M736.228 90.8581C819.502 84.5221 827.636 137.668 874.716 140.641C905.503 142.586 936.949 107.132 1004.15 99.0045C1101.83 87.1913 1162.13 82.7318 1258.5 106.989C1400.76 142.795 1575.3 408.395 1575.3 408.395H586.084L-207.845 405.87V82.5234C-193.486 80.1934 -136.932 72.5625 -123.342 60.6793C-106.355 45.8253 -97.254 60.6793 -90.5802 60.6793C-83.9065 60.6793 -54.5942 17.797 -43.6736 3.81682C-32.753 -10.1634 -15.7652 23.9134 -3.63113 33.5248C8.50288 43.1362 39.2142 29.6261 60.0726 23.9134C89.9499 15.7306 126.694 38.3733 138.828 47.111C173.224 67.4858 199.651 43.0832 225.723 51.0679C266.002 63.4037 258.332 81.027 309.902 84.5221C361.471 88.0171 443.159 51.6227 461.967 42.8851C522.612 14.7109 587.289 60.6793 623.084 75.5333C658.88 90.3873 712.747 92.6447 736.228 90.8581Z" fill="url(#paint0_radial)"/>
<defs>
<radialGradient id="paint0_radial" cx="0" cy="0" r="1" gradientUnits="userSpaceOnUse" gradientTransform="translate(-3.28047 -109.933) rotate(20.7413) scale(1232.34 375.403)">
<stop stop-color="#E754A6"/>
<stop offset="0.19483" stop-color="#DF59C3"/>
<stop offset="0.581608" stop-color="#5066c7"/>
<stop offset="1" stop-color="#2b43a1"/>
</radialGradient>
</defs>
</svg>
