<svg width="100%" height="100%" viewBox="0 0 1440 447" fill="none" xmlns="http://www.w3.org/2000/svg">
<path d="M126.156 76.4945C81.3508 105.618 -206.035 119.66 -206.035 119.66V420.788H231.153L1592.5 446.86V83.1596C1571.08 79.6834 1278.78 68.2988 1258.5 50.57C1233.16 28.4091 1219.58 50.57 1209.62 50.57C1199.67 50.57 1186.99 27.1055 1170.7 6.24816C1154.41 -14.6092 1129.06 36.2306 1110.96 50.57C1092.86 64.9095 1034.93 62.3023 1015.92 36.2306C996.911 10.1589 993.291 23.1947 975.188 36.2306C957.085 49.2665 923.224 38.6708 892.819 50.57C809.545 83.1596 776.054 67.5166 699.117 72.731C622.179 77.9453 534.379 38.0409 506.319 25.005C478.26 11.9692 461.967 -13.3057 408.563 8.85528C355.159 31.0162 331.625 66.6963 245.636 58.3914C198.662 53.8547 170.961 47.3711 126.156 76.4945Z" fill="url(#paint0_radial)"/>
<defs>
<radialGradient id="paint0_radial" cx="0" cy="0" r="1" gradientUnits="userSpaceOnUse" gradientTransform="translate(210.461 548.704) rotate(-12.2324) scale(1101.34 477.409)">
<stop stop-color="#E754A6"/>
<stop offset="0.19483" stop-color="#DF59C3"/>
<stop offset="0.581608" stop-color="#5E308A"/>
<stop offset="1" stop-color="#4F297E"/>
</radialGradient>
</defs>
</svg>
