<svg width="1430" height="465" viewBox="0 0 1050 465" fill="none" xmlns="http://www.w3.org/2000/svg">
<path d="M1102.58 107.458C1147.47 78.2477 1338.52 68.1323 1356.02 80.303V464.757H0.102051C40.9577 421.033 138.59 283.123 227.295 268.339C276.173 260.193 281.604 181.157 330.482 159.618C407.42 125.714 435.48 145.274 472.591 107.458C509.702 69.6412 532.331 89.2014 563.106 77.4653C593.881 65.7292 600.217 37.0408 614.7 13.5687C629.182 -9.90348 638.234 3.13657 647.285 13.5687C656.337 24.0008 654.526 -0.775467 662.673 13.5687C670.819 27.9128 740.516 72.2492 754.998 77.4653C769.481 82.6813 783.963 107.458 812.023 89.2014C840.082 70.9451 825.6 83.9853 907.064 136.146C988.527 188.306 1046.46 143.97 1102.58 107.458Z" fill="url(#paint0_radial)"/>
<defs>
<radialGradient id="paint0_radial" cx="0" cy="0" r="1" gradientUnits="userSpaceOnUse" gradientTransform="translate(314.098 570.606) rotate(-16.6402) scale(846.92 486.447)">
<stop stop-color="#E754A6"/>
<stop offset="0.538286" stop-color="#E0848D"/>
<stop offset="1" stop-color="#7B4AB8"/>
</radialGradient>
</defs>
</svg>
