<svg xmlns="http://www.w3.org/2000/svg" version="1.1" xmlns:xlink="http://www.w3.org/1999/xlink" xmlns:svgjs="http://svgjs.dev/svgjs" width="1000" height="623" viewBox="0 0 1000 623"><g transform="matrix(1,0,0,1,-0.6060606060606233,0.2522267206477409)"><svg viewBox="0 0 396 247" data-background-color="#ff5858" preserveAspectRatio="xMidYMid meet" height="623" width="1000" xmlns="http://www.w3.org/2000/svg" xmlns:xlink="http://www.w3.org/1999/xlink"><g id="tight-bounds" transform="matrix(1,0,0,1,0.2400000000000091,-0.09999999999999432)"><svg viewBox="0 0 395.52 247.2" height="247.2" width="395.52"><g><svg></svg></g><g><svg viewBox="0 0 395.52 247.2" height="247.2" width="395.52"><mask id="3095d91e-edb5-4972-bd07-69c6f02bf3a3"><rect width="395.52" height="247.2" fill="white"></rect><g transform="matrix(1,0,0,1,139.62175294720657,37.08)" id="clone"><svg viewBox="0 0 116.27649410558686 173.04" height="173.04" width="116.27649410558686"><g><svg viewBox="0 0 116.27649410558686 173.04" height="173.04" width="116.27649410558686"><g><svg viewBox="0 0 116.27649410558688 173.04000000000002" height="173.04" width="116.27649410558686"><g><svg viewBox="0 0 116.27649410558688 173.04000000000002" height="173.04000000000002" width="116.27649410558688"><g id="SvgjsG1210"><svg viewBox="0 0 116.27649410558688 173.04000000000002" height="173.04000000000002" width="116.27649410558688" id="SvgjsSvg1209"><g><svg viewBox="0 0 116.27649410558688 173.04000000000002" height="173.04000000000002" width="116.27649410558688"><g transform="matrix(1,0,0,1,0,0)"><svg width="116.27649410558688" viewBox="-1.7300000190734863 -35.619998931884766 26.60999870300293 39.11000061035156" height="173.04000000000002" data-palette-color="#ffffff"><path d="M1.86-23.93L1.86-23.93Q1.86-27.59 4.93-30.1 8.01-32.62 11.87-32.62L11.87-32.62Q13.23-32.62 14.26-32.47 15.28-32.32 17.11-31.86 18.95-31.4 19.63-31.25L19.63-31.25Q20.21-27.93 20.21-23.73L20.21-23.73Q20.12-23.29 19.63-23.29L19.63-23.29Q18.31-23.29 18.21-23.73L18.21-23.73Q17.92-25.98 16.11-28.13 14.31-30.27 11.72-30.27L11.72-30.27Q9.47-30.27 8.28-29 7.08-27.73 7.08-25.59L7.08-25.59Q7.08-24.85 7.25-24.19 7.42-23.54 7.93-22.9 8.45-22.27 8.76-21.85 9.08-21.44 9.99-20.8 10.89-20.17 11.21-19.92 11.52-19.68 12.67-18.97 13.82-18.26 14.06-18.16L14.06-18.16Q14.36-17.92 15.7-17.11 17.04-16.31 17.58-15.94 18.12-15.58 19.14-14.7 20.17-13.82 20.63-13.04 21.09-12.26 21.48-11.06 21.88-9.86 21.88-8.5L21.88-8.5Q21.88-4.59 18.73-2.05 15.58 0.49 11.43 0.49L11.43 0.49Q8.5 0.49 2.44-0.88L2.44-0.88Q2-2.64 1.64-5.3 1.27-7.96 1.27-8.79L1.27-8.79Q1.32-9.18 2.05-9.18L2.05-9.18Q3.32-9.18 3.47-8.79L3.47-8.79Q3.66-7.91 4.15-6.86 4.64-5.81 5.49-4.61 6.35-3.42 7.79-2.66 9.23-1.9 11.04-1.9L11.04-1.9Q13.33-1.9 14.84-3.27 16.36-4.64 16.36-7.37L16.36-7.37Q16.36-8.2 16.04-8.98 15.72-9.77 15.31-10.3 14.89-10.84 14.09-11.47 13.28-12.11 12.74-12.45 12.21-12.79 11.16-13.4 10.11-14.01 9.67-14.26L9.67-14.26Q9.52-14.4 9.13-14.65L9.13-14.65Q7.71-15.53 6.98-16.02 6.25-16.5 5.1-17.46 3.96-18.41 3.37-19.24 2.78-20.07 2.32-21.29 1.86-22.51 1.86-23.93Z" opacity="1" transform="matrix(1,0,0,1,0,0)" fill="black" class="wordmark-text-0" id="SvgjsPath1208" stroke-width="5" stroke="black" stroke-linejoin="round"></path></svg></g></svg></g></svg></g></svg></g></svg></g></svg></g></svg></g></mask><g mask="url(#3095d91e-edb5-4972-bd07-69c6f02bf3a3)"><g><path xmlns="http://www.w3.org/2000/svg" d="M143.133 79.375v0c0-13.72 5.754-25.285 17.262-34.694 11.546-9.447 24.554-14.17 39.024-14.17v0c5.098 0 9.578 0.281 13.439 0.844 3.824 0.562 9.165 1.706 16.025 3.43 6.898 1.724 11.621 2.868 14.17 3.43v0c2.174 12.446 3.261 26.541 3.262 42.285v0c-0.337 1.649-1.424 2.474-3.262 2.474v0c-4.948 0-7.61-0.825-7.984-2.474v0c-1.087-8.434-5.023-16.682-11.809-24.741-6.748-8.022-14.976-12.033-24.685-12.034v0c-8.434 0-14.882 2.38-19.343 7.142-4.498 4.761-6.748 11.152-6.747 19.174v0c0 2.774 0.319 5.398 0.956 7.872 0.637 2.437 1.912 4.855 3.823 7.254 1.949 2.362 3.505 4.33 4.667 5.904 1.2 1.537 3.505 3.505 6.917 5.904 3.374 2.362 5.66 4.011 6.86 4.948 1.162 0.9 3.899 2.68 8.209 5.342 4.311 2.662 6.916 4.18 7.816 4.555v0c1.125 0.9 4.199 2.868 9.222 5.904 5.023 2.999 8.547 5.192 10.571 6.579 2.024 1.35 4.948 3.674 8.772 6.972 3.861 3.299 6.654 6.41 8.378 9.335 1.724 2.924 3.318 6.635 4.78 11.133 1.499 4.498 2.249 9.297 2.249 14.395v0c0 14.657-5.904 26.747-17.712 36.268-11.808 9.522-25.491 14.282-41.048 14.283v0c-10.984 0-27.834-2.568-50.551-7.704v0c-1.649-6.598-3.149-14.882-4.498-24.853-1.387-9.971-2.081-16.513-2.081-19.625v0c0.187-1.462 1.649-2.193 4.386-2.193v0c4.761 0 7.422 0.731 7.985 2.193v0c0.712 3.299 1.987 6.916 3.823 10.853 1.837 3.936 4.348 8.153 7.535 12.651 3.224 4.461 7.535 8.116 12.933 10.965 5.398 2.849 11.49 4.273 18.275 4.274v0c8.584 0 15.707-2.568 21.367-7.704 5.698-5.136 8.547-12.82 8.547-23.054v0c0-3.111-0.6-6.129-1.799-9.053-1.2-2.961-2.568-5.436-4.105-7.422-1.574-2.024-3.861-4.217-6.86-6.579-3.036-2.399-5.567-4.236-7.591-5.511-1.987-1.275-4.948-3.055-8.885-5.342-3.936-2.287-6.729-3.899-8.378-4.835v0c-0.562-0.525-1.574-1.256-3.036-2.193v0c-5.323-3.299-9.353-5.867-12.09-7.704-2.737-1.799-6.26-4.498-10.571-8.097-4.273-3.561-7.516-6.898-9.728-10.009-2.212-3.111-4.18-6.954-5.904-11.527-1.724-4.573-2.587-9.522-2.586-14.845z" fill="#ffffff" fill-rule="nonzero" stroke="none" stroke-width="1" stroke-linecap="butt" stroke-linejoin="miter" stroke-miterlimit="10" stroke-dasharray="" stroke-dashoffset="0" font-family="none" font-weight="none" font-size="none" text-anchor="none" style="mix-blend-mode: normal" data-fill-palette-color="tertiary"></path></g></g><g transform="matrix(1,0,0,1,139.62175294720657,37.08)"><svg viewBox="0 0 116.27649410558686 173.04" height="173.04" width="116.27649410558686"><g><svg viewBox="0 0 116.27649410558686 173.04" height="173.04" width="116.27649410558686"><g><svg viewBox="0 0 116.27649410558688 173.04000000000002" height="173.04" width="116.27649410558686"><g><svg viewBox="0 0 116.27649410558688 173.04000000000002" height="173.04000000000002" width="116.27649410558688"><g id="textblocktransform"><svg viewBox="0 0 116.27649410558688 173.04000000000002" height="173.04000000000002" width="116.27649410558688" id="textblock"><g><svg viewBox="0 0 116.27649410558688 173.04000000000002" height="173.04000000000002" width="116.27649410558688"><g transform="matrix(1,0,0,1,0,0)"><svg width="116.27649410558688" viewBox="-1.7300000190734863 -35.619998931884766 26.60999870300293 39.11000061035156" height="173.04000000000002" data-palette-color="#ffffff"><path d="M1.86-23.93L1.86-23.93Q1.86-27.59 4.93-30.1 8.01-32.62 11.87-32.62L11.87-32.62Q13.23-32.62 14.26-32.47 15.28-32.32 17.11-31.86 18.95-31.4 19.63-31.25L19.63-31.25Q20.21-27.93 20.21-23.73L20.21-23.73Q20.12-23.29 19.63-23.29L19.63-23.29Q18.31-23.29 18.21-23.73L18.21-23.73Q17.92-25.98 16.11-28.13 14.31-30.27 11.72-30.27L11.72-30.27Q9.47-30.27 8.28-29 7.08-27.73 7.08-25.59L7.08-25.59Q7.08-24.85 7.25-24.19 7.42-23.54 7.93-22.9 8.45-22.27 8.76-21.85 9.08-21.44 9.99-20.8 10.89-20.17 11.21-19.92 11.52-19.68 12.67-18.97 13.82-18.26 14.06-18.16L14.06-18.16Q14.36-17.92 15.7-17.11 17.04-16.31 17.58-15.94 18.12-15.58 19.14-14.7 20.17-13.82 20.63-13.04 21.09-12.26 21.48-11.06 21.88-9.86 21.88-8.5L21.88-8.5Q21.88-4.59 18.73-2.05 15.58 0.49 11.43 0.49L11.43 0.49Q8.5 0.49 2.44-0.88L2.44-0.88Q2-2.64 1.64-5.3 1.27-7.96 1.27-8.79L1.27-8.79Q1.32-9.18 2.05-9.18L2.05-9.18Q3.32-9.18 3.47-8.79L3.47-8.79Q3.66-7.91 4.15-6.86 4.64-5.81 5.49-4.61 6.35-3.42 7.79-2.66 9.23-1.9 11.04-1.9L11.04-1.9Q13.33-1.9 14.84-3.27 16.36-4.64 16.36-7.37L16.36-7.37Q16.36-8.2 16.04-8.98 15.72-9.77 15.31-10.3 14.89-10.84 14.09-11.47 13.28-12.11 12.74-12.45 12.21-12.79 11.16-13.4 10.11-14.01 9.67-14.26L9.67-14.26Q9.52-14.4 9.13-14.65L9.13-14.65Q7.71-15.53 6.98-16.02 6.25-16.5 5.1-17.46 3.96-18.41 3.37-19.24 2.78-20.07 2.32-21.29 1.86-22.51 1.86-23.93Z" opacity="1" transform="matrix(1,0,0,1,0,0)" fill="#ffffff" class="wordmark-text-0" data-fill-palette-color="primary" id="text-0"></path></svg></g></svg></g></svg></g></svg></g></svg></g></svg></g></svg></g></svg></g><defs></defs></svg><rect width="395.52" height="247.2" fill="none" stroke="none" visibility="hidden"></rect></g></svg></g></svg>